<svg xmlns="http://www.w3.org/2000/svg" width="274" height="200" viewBox="0 0 274 200">
  <g id="Group_24942" data-name="Group 24942" transform="translate(-429.952 -88.487)">
    <path id="Path_28426" data-name="Path 28426" d="M450.446,288.487a126.238,126.238,0,0,1-20.494-68.968c0-72.367,61.337-131.031,137-131.031s137,58.664,137,131.031a126.238,126.238,0,0,1-20.494,68.968Z" transform="translate(0)" fill="#202020"/>
    <g id="Group_24927" data-name="Group 24927" transform="translate(523.55 114.551)">
      <path id="Rectangle_359" data-name="Rectangle 359" d="M5.152,0H97.6a4.689,4.689,0,0,1,4.689,4.689V58.432a5.152,5.152,0,0,1-5.152,5.152H5.152A5.152,5.152,0,0,1,0,58.432V5.152A5.152,5.152,0,0,1,5.152,0Z" transform="translate(0)" fill="#515151"/>
      <path id="Rectangle_360" data-name="Rectangle 360" d="M2.417,0H96.231a2.416,2.416,0,0,1,2.416,2.416V56.28A2.416,2.416,0,0,1,96.231,58.7H2.416A2.416,2.416,0,0,1,0,56.28V2.417A2.417,2.417,0,0,1,2.417,0Z" transform="translate(1.794 2.444)" fill="#3d3d3d"/>
      <path id="Path_28427" data-name="Path 28427" d="M633.982,126.987v-6.309a.63.63,0,0,0-.565-.679H535.9a.629.629,0,0,0-.565.679v39.687Z" transform="translate(-533.54 -117.555)" fill="#525252" opacity="0.25" style="mix-blend-mode: screen;isolation: isolate"/>
    </g>
    <g id="Group_24933" data-name="Group 24933" transform="translate(566.485 155.51)">
      <g id="Group_24929" data-name="Group 24929" transform="translate(71.264 23.788)">
        <path id="Path_28428" data-name="Path 28428" d="M681.622,303.878l-1.823-.261c.241-17.649.453-43.069.051-44.573a.535.535,0,0,0,.121.2l1.479-.856c.24.266.384.427.434,7.933.025,3.862.016,9.2-.029,15.853C681.778,293.51,681.624,303.764,681.622,303.878Z" transform="translate(-661.435 -195.494)" fill="#171717"/>
        <g id="Group_24928" data-name="Group 24928" transform="translate(34.389 21.199)">
          <path id="Path_28429" data-name="Path 28429" d="M698.482,252.334l-.979-.829c3.586-4.234,5.559-12.3,5.7-23.334a116.536,116.536,0,0,0-.9-15.694l1.271-.178a117.782,117.782,0,0,1,.911,15.873,69.262,69.262,0,0,1-1.293,13.214C702.195,246.141,700.608,249.825,698.482,252.334Z" transform="translate(-697.503 -212.299)" fill="#171717"/>
        </g>
        <path id="Path_28430" data-name="Path 28430" d="M688.01,189.686c.53,0,20.29-2.144,20.644.506s1.06,23.32-2.475,24.027-20.682-2.473-20.682-2.473Z" transform="translate(-661.976 -188.867)" fill="#171717"/>
        <path id="Path_28431" data-name="Path 28431" d="M660.23,257.294c.763-.153-1.944,2.65,0,3.533s31.288.354,33.586-.707,5.126-2.826,4.065-5.123-19.143-5.3-19.143-5.3l-16.387,4.417S659.346,257.47,660.23,257.294Z" transform="translate(-659.512 -194.665)" fill="#171717"/>
        <path id="Rectangle_361" data-name="Rectangle 361" d="M1.811,0h21.73a1.811,1.811,0,0,1,1.811,1.811v0a.317.317,0,0,1-.317.317H.317A.317.317,0,0,1,0,1.811v0A1.811,1.811,0,0,1,1.811,0Z" transform="translate(6.676 107.061)" fill="#171717"/>
        <rect id="Rectangle_362" data-name="Rectangle 362" width="5.513" height="2.85" rx="1.425" transform="translate(16.66 105.275)" fill="#171717"/>
      </g>
      <path id="Path_28432" data-name="Path 28432" d="M664.073,248.556c.583-.292,16.223-11.253,16.223-11.253l-19.142-1.874s-29.927,4.093-34.293,7.73q-.471.394-.87.755a5.786,5.786,0,0,0-.886,7.547c2.95,4.333,1.1,3.882,6.118,11,5.932,8.42,19.832,25.118,19.832,25.118h0c1.683,2.063,3.974,4.937,4,5.313.037.6.12,6.177-.559,6.772s-1.787,1.348-1.58,1.74c.326.62,2.095.588,4.567.452.721-.04,2.946-5.119,3.232-5.964.415-1.229,1.425-3.994,1.047-4.851a7.2,7.2,0,0,0-2.3-2.074c-.791-.511-2.939-3.266-4.505-5.353,0,0-14.263-26.679-15.736-27.722s-7.246-7.63-7.246-7.63,9.631,3.646,10.069,3.646S663.489,248.847,664.073,248.556Z" transform="translate(-584.89 -169.517)" fill="#707070"/>
      <path id="Path_28433" data-name="Path 28433" d="M662.477,294.987s-3.6,9.821-5.1,10.342c-.4.138-2.764.89-3.126,1.736a3.653,3.653,0,0,0,0,1.1h7.2a21.567,21.567,0,0,0,1.523-4.429s2.972-6.912,2.791-7.4C665.227,294.888,662.477,294.987,662.477,294.987Z" transform="translate(-587.745 -175.194)" fill="#171717"/>
      <path id="Path_28434" data-name="Path 28434" d="M679.2,237.549s-16.562-1.6-22.254,0-28.6,8.605-30.207,10.355-22.327,43.419-22.338,43.44a38.773,38.773,0,0,1-2.727,4.8,9.547,9.547,0,0,1-1.966,1.832c-.286.175-1.194.678-1.412.784a29.306,29.306,0,0,0-5.229,2.885c-.639.469-.74.451.052.439l12.725-.519s1.436.287,2-.759.186-2.237-.033-3.349a4.815,4.815,0,0,1,.919-3.348c2.036-3.435,17.52-21.345,20.74-27.016,3.232-5.69,4.151-9.312,4.267-11,9.631,0,37.838-.2,42.763-4.79S679.2,237.549,679.2,237.549Z" transform="translate(-581.9 -169.651)" fill="#848484"/>
      <path id="Path_28435" data-name="Path 28435" d="M599.581,304.387a12.953,12.953,0,0,0,8.188-.288c.411,1.16,1.047,2.578.759,3.417-.353,1.027-.856,1.259-1.3,1.271-3.514.091-12.872.217-15.55.251a.436.436,0,0,1-.34-.717C592,307.53,599.294,304.561,599.581,304.387Z" transform="translate(-581.775 -176.062)" fill="#3d3d3d"/>
      <path id="Path_28436" data-name="Path 28436" d="M661.33,235.367s-29.947,4.152-34.313,7.788a6.031,6.031,0,0,0-.518.5,10.869,10.869,0,0,1,1.253-.56s6.889-.438,12.471,8.1a19,19,0,0,0,1.991.652c.438,0,21.451-3.062,22.035-3.355s16.224-11.252,16.224-11.252Z" transform="translate(-585.118 -169.511)" fill="#3d3d3d"/>
      <path id="Path_28437" data-name="Path 28437" d="M683.29,237.549s-16.562-1.6-22.254,0c-4.213,1.188-17.863,5.333-25.32,8.116,2.638,1.808,5.554,4.954,7.9,10.423,12.395.019,33.881-.223,38.038-4.1C686.574,247.394,683.29,237.549,683.29,237.549Z" transform="translate(-585.992 -169.651)" fill="#3d3d3d"/>
      <path id="Path_28438" data-name="Path 28438" d="M633.405,216.049l17.473-3.863s6.319-8.115,12.387-15.1c1.786,1.767,2.779,4.481,4.578,6.231L654.5,218.064a2.549,2.549,0,0,1-1.881.84l-18.518.062-6.337.5v-4.054Z" transform="translate(-585.238 -165.862)" fill="#707070"/>
      <path id="Path_28439" data-name="Path 28439" d="M668.591,194.364c-3.055-.811-15.292,17.56-15.292,17.56s1.657.769,4.608,4.791l4.714-5.212.007.009s9.37-8.845,11.149-11.924S671.646,195.174,668.591,194.364Z" transform="translate(-587.659 -165.6)" fill="#3d3d3d"/>
      <path id="Path_28440" data-name="Path 28440" d="M662.592,170.057c.075-.149.119-.23.119-.23l-.006-.063c.22-.544.46-1.085.725-1.621,1.753-3.551,6.089-5.566,10.044-5.571a12.6,12.6,0,0,1,3.538.48c1.619.727,5.578,3.245,6.608,10.744a12.027,12.027,0,0,1-1.43,7.528,9.045,9.045,0,0,1,3.479,4.76c1.863,5.027,11.178,6.145,12.11,12.847s-8.756,18.8-19,10.985c-7.8-5.952-6.532-17.3-5.482-22.377a11.44,11.44,0,0,1-7.559-1.641,9.516,9.516,0,0,1-4.842-7.085A25.979,25.979,0,0,1,662.592,170.057Z" transform="translate(-588.379 -162.572)" fill="#3d3d3d"/>
      <path id="Path_28441" data-name="Path 28441" d="M675.533,191.881s6.207-1.224,9.039,1.141-.606,23.392-.6,26.878,1.944,13.334,1.944,13.334-18.812,3.291-21.8-1.942c0,0-.85-19.936-.724-22.443s.93-9.948,3.687-13.858C667.849,193.894,675.533,191.881,675.533,191.881Z" transform="translate(-588.614 -165.335)" fill="#515151"/>
      <g id="Group_24930" data-name="Group 24930" transform="translate(83.019 17.991)">
        <path id="Path_28442" data-name="Path 28442" d="M673.057,189.347c6.348,0,10.871-5.744,11.061-5.988a.559.559,0,0,0-.884-.684h0c-.043.055-4.383,5.556-10.176,5.556a.558.558,0,1,0,0,1.116Z" transform="translate(-672.498 -182.458)" fill="#707070"/>
      </g>
      <path id="Path_28443" data-name="Path 28443" d="M676.258,181.293s.033.185.091.5c.282,1.514,1.366,6.536,2.1,7.917.885,1.669-3.03,6.991-6.8,6.342-1.122-.194.948-4.891.848-5.387-.19-.953-.448-2.252-.712-3.584-.149-.751-.3-1.514-.442-2.229l-.732-3.7Z" transform="translate(-589.3 -164.343)" fill="#848484"/>
      <path id="Path_28444" data-name="Path 28444" d="M676.349,181.794c-.059-.316-.091-.5-.091-.5l-5.647-.14.732,3.7c.14.712.291,1.469.439,2.216a5.282,5.282,0,0,0,2.7-1.348,7.1,7.1,0,0,0,2.042-3.029C676.45,182.335,676.392,182.029,676.349,181.794Z" transform="translate(-589.3 -164.343)" fill="#707070"/>
      <path id="Path_28445" data-name="Path 28445" d="M645.624,216.049l17.472-3.863s6.319-8.115,12.388-15.1c1.786,1.767,2.778,4.481,4.577,6.231l-13.339,14.745a2.552,2.552,0,0,1-1.882.84l-18.519.062-6.337.5v-4.054Z" transform="translate(-586.397 -165.862)" fill="#848484"/>
      <g id="Group_24931" data-name="Group 24931" transform="translate(21.451 30.31)">
        <path id="Path_28446" data-name="Path 28446" d="M606.363,196.075h28.816a1.879,1.879,0,0,1,1.739,1.165l8.873,21.628h15.886a.8.8,0,0,1,.8.8h0a.8.8,0,0,1-.8.8H616.463a3.156,3.156,0,0,1-2.88-1.862l-8.934-19.89A1.878,1.878,0,0,1,606.363,196.075Z" transform="translate(-604.482 -196.075)" fill="#707070"/>
        <path id="Path_28447" data-name="Path 28447" d="M623.7,209.775a1.585,1.585,0,1,0,1.188-2.067A1.7,1.7,0,0,0,623.7,209.775Z" transform="translate(-606.3 -197.181)" fill="#515151"/>
      </g>
      <path id="Path_28448" data-name="Path 28448" d="M670.795,166.11a5.92,5.92,0,0,1,4.955,2.058c1.91,2.4,3.967,9.822-.776,13.857s-9.43-.533-10.125-5.376S663.884,165.936,670.795,166.11Z" transform="translate(-588.722 -162.908)" fill="#848484"/>
      <path id="Path_28449" data-name="Path 28449" d="M671.076,165.227s4.07,7.058,6.981,7.384,3.294,4.076,3.294,4.076-1.041-8.642-3.923-10.308A10.985,10.985,0,0,0,671.076,165.227Z" transform="translate(-589.344 -162.818)" fill="#3d3d3d"/>
      <path id="Path_28450" data-name="Path 28450" d="M677.939,175.147c-.237,1.254.239,2.4,1.064,2.568s1.685-.718,1.921-1.971-.239-2.4-1.064-2.567S678.176,173.894,677.939,175.147Z" transform="translate(-589.989 -163.581)" fill="#848484"/>
      <path id="Path_28451" data-name="Path 28451" d="M664.689,177.059c1.906-1.364,4.3-1.254,7.666-1.524a11,11,0,0,0,5.331-2.1c-1.919,2.036-3.233,3.563-2.662,4.767s2.728-.461,2.728-.461c-1.91,2.241-1.413,3.7-1.413,3.7-2.7,3.079-5.017,3.489-7.476,2.394C665.452,182.314,664.689,177.059,664.689,177.059Z" transform="translate(-588.739 -163.608)" fill="#515151"/>
      <path id="Path_28452" data-name="Path 28452" d="M683.156,192.079c-3.056-.81-13.027,13.837-13.028,13.838-2.714,3.352-4.611,5.789-4.611,5.789s1.657.769,4.608,4.791l4.714-5.212.008.009s9.37-8.845,11.149-11.924A4.827,4.827,0,0,0,683.156,192.079Z" transform="translate(-588.817 -165.381)" fill="#3d3d3d"/>
      <g id="Group_24932" data-name="Group 24932" transform="translate(30.181 56.378)">
        <path id="Rectangle_363" data-name="Rectangle 363" d="M1.811,0h21.73a1.81,1.81,0,0,1,1.81,1.81v0a.317.317,0,0,1-.317.317H.317A.317.317,0,0,1,0,1.811v0A1.811,1.811,0,0,1,1.811,0Z" transform="translate(0 74.471)" fill="#171717"/>
        <rect id="Rectangle_364" data-name="Rectangle 364" width="2.756" height="74.37" transform="translate(11.363)" fill="#3d3d3d"/>
        <rect id="Rectangle_365" data-name="Rectangle 365" width="5.513" height="2.85" rx="1.425" transform="translate(9.985 72.685)" fill="#171717"/>
      </g>
      <rect id="Rectangle_366" data-name="Rectangle 366" width="85.714" height="2.77" transform="translate(0 54.695)" fill="#3d3d3d"/>
    </g>
    <g id="Group_24941" data-name="Group 24941" transform="translate(454.314 110.805)">
      <path id="Path_28453" data-name="Path 28453" d="M466.6,290.258s-.832,5.8-2.263,7.669a14.844,14.844,0,0,0-1.934,2.558c-.9,1.766-.4,4.4.261,5.845.339.744-.024.742.749.982a4.741,4.741,0,0,0,5.7-2.689,13.718,13.718,0,0,0,1.117-4.941c.244-5.264,1.874-7.941,1.874-7.941Z" transform="translate(-457.345 -130.038)" fill="#848484"/>
      <path id="Path_28454" data-name="Path 28454" d="M494.647,293.189s.514,6.538.1,8.663c-.223,1.137-1.465,3.479-.9,4.551a2.866,2.866,0,0,0,1.221,1.338l14.776.239c.8.014.272-.508-.377-.987a29.736,29.736,0,0,0-5.313-2.954c-.221-.108-1.026-.622-1.317-.8a10.222,10.222,0,0,1-2.114-1.876c-1.061-1.188-1.154-6.945-1.154-6.945Z" transform="translate(-460.358 -130.317)" fill="#848484"/>
      <path id="Path_28455" data-name="Path 28455" d="M506.028,196.952s1.86,10.616.639,17.574-6.954,74.695-6.954,74.695l-5.046-2.2s-2.969-27.6-2.725-31.349a58.342,58.342,0,0,1,2.178-10.018l-.648-21.757,8.223-28.582Z" transform="translate(-460.19 -120.988)" fill="#848484"/>
      <path id="Path_28456" data-name="Path 28456" d="M484.459,194.4s-5.131,7.762-6.353,14.186.9,26.167-1.453,34.585c-1.273,4.557-6.094,11.594-6.827,17.483s-3.39,23.365-3.39,23.365l4.787,2.025,16.646-41.3,11.873-34.819,3.041-17.933Z" transform="translate(-457.773 -120.672)" fill="#848484"/>
      <path id="Path_28457" data-name="Path 28457" d="M469.506,304.539a7.266,7.266,0,0,1-7.141-3c-.9,1.77-1.342,4.411-.678,5.865.584,1.281,2.292,1.244,3.637,1.295a3.511,3.511,0,0,0,3.228-1.986A11.965,11.965,0,0,0,469.506,304.539Z" transform="translate(-457.292 -131.113)" fill="#707070"/>
      <path id="Path_28458" data-name="Path 28458" d="M502.835,304.261a13.318,13.318,0,0,1-8.413-.332c-.416,1.187-.969,2.676-.676,3.535.359,1.051.87,1.289,1.321,1.3,3.569.094,13.075.223,15.8.258a.447.447,0,0,0,.346-.735C510.533,307.478,503.125,304.439,502.835,304.261Z" transform="translate(-460.354 -131.341)" fill="#707070"/>
      <g id="Group_24940" data-name="Group 24940">
        <g id="Group_24939" data-name="Group 24939">
          <path id="Path_28459" data-name="Path 28459" d="M504.007,132.2a27.6,27.6,0,0,0-2.525-13.311c-1.756-3.654-6.1-5.727-10.068-5.732-12.587-.016-14.187,16.605-22.2,23.017-2.449,1.959-5.185,3.555-7.5,5.667-8.554,7.8-4.7,22.242,3.154,29.081,5.451,4.746,14.018,7.443,20.736,3.733a21.118,21.118,0,0,0,8.065-8.683c2.692-5.007,4.427-10.782,6.342-16.118C502.048,144.175,503.755,138.263,504.007,132.2Z" transform="translate(-456.866 -113.157)" fill="#171717"/>
          <g id="Group_24938" data-name="Group 24938" transform="translate(12.615 3.065)">
            <g id="Group_24937" data-name="Group 24937">
              <g id="Group_24936" data-name="Group 24936">
                <path id="Path_28460" data-name="Path 28460" d="M502.073,149.577a9.28,9.28,0,0,0-1.124,6.783c.8,4.066,12.988,16.63,14.515,17.437a3.2,3.2,0,0,0,3.427.111c6.423-3.654,15.5-23.11,16.549-24.5l.924-1.217-.894-3.271-17.751,19.5S503.213,148.222,502.073,149.577Z" transform="translate(-473.642 -119.25)" fill="#848484"/>
                <path id="Path_28461" data-name="Path 28461" d="M499.272,146.359a19.174,19.174,0,0,1,1.8.816c2.829,1.77,12.1,11.857,12.1,11.857s-4.877,5.237-7.037,7.477l-12.333-9.273Z" transform="translate(-472.982 -119.387)" fill="#3d3d3d"/>
                <g id="Group_24935" data-name="Group 24935">
                  <g id="Group_24934" data-name="Group 24934">
                    <path id="Path_28462" data-name="Path 28462" d="M483.682,195.466c-7.907,9.841-7.878,16.519-7.8,29.154s1.867,16.605-5.078,29.421c12.559,7.4,30.5,5.6,30.5,5.6,4.637-42.958,6.116-53.027,2.727-62.67A135.761,135.761,0,0,1,483.682,195.466Z" transform="translate(-470.802 -124.067)" fill="#3d3d3d"/>
                    <path id="Path_28463" data-name="Path 28463" d="M489.067,144.435s-7.244-.46-10.11,2.655,6.357,27.761,6.879,31.726S481.89,191.2,481.89,191.2s13.084,5.536,23.911,2.439c0,0-.22-28.624-.741-31.457s-4.864-14.351-5.906-15.485S489.067,144.435,489.067,144.435Z" transform="translate(-471.523 -119.201)" fill="#515151"/>
                    <path id="Path_28464" data-name="Path 28464" d="M492.57,133.749s-.038.213-.105.575c-.323,1.737-1.567,7.5-2.407,9.083-1.016,1.915,3.476,8.021,7.8,7.275,1.287-.222-1.088-5.61-.974-6.181.219-1.093.515-2.583.818-4.112l.507-2.558c.463-2.335.839-4.245.839-4.245Z" transform="translate(-472.614 -118.169)" fill="#848484"/>
                    <path id="Path_28465" data-name="Path 28465" d="M492.711,134.324c.067-.362.105-.575.105-.575l6.478-.161s-.377,1.91-.839,4.245c-.162.817-.334,1.686-.5,2.543a6.073,6.073,0,0,1-3.093-1.546,8.148,8.148,0,0,1-2.343-3.476C492.595,134.946,492.662,134.593,492.711,134.324Z" transform="translate(-472.86 -118.169)" fill="#707070"/>
                    <path id="Path_28466" data-name="Path 28466" d="M496.921,117.53a5.848,5.848,0,0,0-4.968,2.117c-1.914,2.47-3.977,10.1.778,14.256s9.452-.548,10.149-5.53S503.847,117.35,496.921,117.53Z" transform="translate(-472.605 -116.637)" fill="#848484"/>
                    <path id="Path_28467" data-name="Path 28467" d="M496.963,116.622s-4.082,7.286-7,7.622-3.3,4.168-3.3,4.168,1.043-8.89,3.932-10.6A10.754,10.754,0,0,1,496.963,116.622Z" transform="translate(-472.306 -116.545)" fill="#171717"/>
                    <path id="Path_28468" data-name="Path 28468" d="M490.837,126.827c.237,1.29-.233,2.529-1.058,2.7s-1.7-.8-1.934-2.084.24-2.472,1.066-2.642S490.6,125.538,490.837,126.827Z" transform="translate(-472.412 -117.33)" fill="#848484"/>
                    <path id="Path_28469" data-name="Path 28469" d="M490.078,125.092c3.423,2.274,6.52,1.577,9.127,1.977s3.743.726,3.926,1.087c-.511,4.2-2.2,6.738-4.731,7.879s-5.548-.583-6.773-2.438c.343-1.117-1.638-4.041-1.638-4.041C494.146,130.481,491.333,126.359,490.078,125.092Z" transform="translate(-472.621 -117.359)" fill="#515151"/>
                  </g>
                </g>
              </g>
            </g>
          </g>
          <path id="Path_28470" data-name="Path 28470" d="M511.024,192.181l-19.17.485-.988-26.577,20.295.064Z" transform="translate(-460.089 -118.202)" fill="#707070"/>
          <path id="Path_28471" data-name="Path 28471" d="M509.553,178c-.049-.1-1.507.616-2.655.364-.23-.051.616-.747.73-.954.015-.028,1.714-1.1,1.573-1.834s-1.6-.261-1.6-.261a38.053,38.053,0,0,0-4.716,2.491,5.8,5.8,0,0,0-.866,1.082,4.239,4.239,0,0,1-.636.157c-3.8.489-10.008-.378-19.465-1.864l-.011-4.959a52.6,52.6,0,0,1-7.112-.411c.085,3.782.037,10.341.846,11.593.567.878,5.559,1.468,11.115,1.893,7.077.542,8.932.137,15.08-.29a44.65,44.65,0,0,1,5.39.437c1.444.009,1.951.17,2.68-.588.616-.64.543-2.215.441-3.189A9.472,9.472,0,0,0,509.553,178Z" transform="translate(-458.565 -118.748)" fill="#848484"/>
          <path id="Path_28472" data-name="Path 28472" d="M482.039,145.192a9.444,9.444,0,0,0-6.073,4.387c-1.31,2.4-2.706,13.507-2.276,21.764a60.832,60.832,0,0,1,10.258-.706C483.84,163.238,483.431,144.943,482.039,145.192Z" transform="translate(-458.453 -116.21)" fill="#3d3d3d"/>
        </g>
        <path id="Path_28473" data-name="Path 28473" d="M524.07,160.078s9.751-12.063,11.664-13.959,9.716-7.427,9.941-6.844-4.235,4.939-4.172,5.1.781,1.411,1.038,2.076a5.48,5.48,0,0,1,.1,2.757,6.973,6.973,0,0,1-2.694,1.681c-.893.345-2.174.16-3.241,1.114s-9.566,13.546-9.566,13.546Z" transform="translate(-463.237 -115.642)" fill="#848484"/>
      </g>
    </g>
  </g>
</svg>
