<?xml version="1.0" encoding="utf-8"?>
<!-- Generator: Adobe Illustrator 22.1.0, SVG Export Plug-In . SVG Version: 6.00 Build 0)  -->
<svg version="1.1" id="Group_24244" xmlns="http://www.w3.org/2000/svg" xmlns:xlink="http://www.w3.org/1999/xlink" x="0px"
	 y="0px" viewBox="0 0 150 60" style="enable-background:new 0 0 150 60;" xml:space="preserve">
<style type="text/css">
	.st0{fill:#FFFFFF;}
</style>
<g>
	<path class="st0" d="M28.8,49.1c0.5,0,1.1,0.1,1.5,0.5c0.3,0.2,0.8,0.7,0.8,1.5c0,0.8-0.3,1.6-1.3,2.5c0.9,1.2,1.6,2.1,2.3,2.8
		c0.6,0.6,1.1,0.7,1.3,0.8c0.2,0,0.4,0,0.4,0c0.1,0,0.1,0,0.1,0.1c0,0.1-0.1,0.1-0.3,0.1l-0.8,0c-0.6,0-0.9-0.1-1.2-0.2
		c-0.5-0.3-0.9-0.8-1.5-1.6c-0.5-0.6-1-1.3-1.2-1.6c0,0-0.1-0.1-0.1-0.1l-0.1,0v-0.3c0.2,0,0.5-0.1,0.7-0.2c0.4-0.3,0.7-0.9,0.7-1.7
		c0-1.1-0.5-1.9-1.4-2.1V49.1z M26.5,52.3c0-1.7,0-2,0-2.4c0-0.4-0.1-0.5-0.5-0.6c-0.1,0-0.3,0-0.4,0c-0.1,0-0.1,0-0.1-0.1
		c0-0.1,0.1-0.1,0.2-0.1c0.5,0,1.2,0,1.2,0c0.1,0,1,0,1.3,0c0.2,0,0.3,0,0.5,0v0.4c-0.2,0-0.3-0.1-0.5-0.1c-0.3,0-0.6,0-0.7,0.1
		c-0.1,0-0.1,0.1-0.1,0.1l0,3.6c0,0.1,0,0.1,0.1,0.1c0.2,0.1,0.7,0.2,1.1,0.2c0,0,0.1,0,0.1,0v0.3l-1.3,0c-0.1,0-0.1,0-0.1,0.1v0.3
		c0,1.1,0,1.9,0.1,2.4c0,0.3,0.1,0.6,0.4,0.6c0.2,0,0.4,0,0.5,0c0.1,0,0.1,0,0.1,0.1c0,0.1-0.1,0.1-0.2,0.1c-0.6,0-1.3,0-1.3,0
		c0,0-0.7,0-1,0c-0.1,0-0.2,0-0.2-0.1c0,0,0-0.1,0.1-0.1c0.1,0,0.2,0,0.3,0c0.2,0,0.3-0.3,0.3-0.6c0-0.5,0-1.3,0-2.4V52.3z"/>
	<path class="st0" d="M5.7,48.9c2.5,0,4.3,1.6,4.3,4.1c0,2.4-1.7,4.5-4.3,4.5v-0.4c0.1,0,0.2,0,0.2,0c1,0,3-0.6,3-3.8
		c0-2.6-1.6-4-3.3-4.1L5.7,48.9L5.7,48.9z M5.7,57.6L5.7,57.6c-3.1,0-4.3-2.3-4.3-4.3c0-1.8,1.3-4.3,4.3-4.3v0.4l-0.1,0
		c-1.8,0-3.2,1.2-3.2,3.6c0,2.5,1.4,4.1,3.3,4.2V57.6z"/>
	<path class="st0" d="M10.8,52.3c0-1.7,0-2,0-2.4c0-0.4-0.1-0.6-0.5-0.6c-0.1,0-0.3,0-0.4,0c-0.1,0-0.1,0-0.1-0.1
		c0-0.1,0.1-0.1,0.2-0.1c0.5,0,1.2,0,1.2,0c0.2,0,2.5,0,2.7,0c0.2,0,0.4,0,0.5,0c0.1,0,0.1-0.1,0.2-0.1c0,0,0.1,0,0.1,0.1
		c0,0.1-0.1,0.2-0.1,0.5c0,0.1,0,0.6,0,0.7c0,0.1,0,0.1-0.1,0.1c-0.1,0-0.1-0.1-0.1-0.1c0-0.1,0-0.3-0.1-0.4
		c-0.1-0.1-0.3-0.3-0.7-0.4l-1.7,0c-0.1,0-0.1,0-0.1,0.1v3c0,0.1,0,0.1,0.1,0.1l1.4,0c0.2,0,0.3,0,0.5,0c0.3,0,0.4-0.1,0.5-0.2
		c0-0.1,0.1-0.1,0.1-0.1c0,0,0.1,0,0.1,0.1c0,0.1-0.1,0.3-0.1,0.6c0,0.2,0,0.7,0,0.7c0,0.1,0,0.2-0.1,0.2c-0.1,0-0.1,0-0.1-0.1
		c0-0.1,0-0.3-0.1-0.4c-0.1-0.2-0.2-0.4-0.6-0.4c-0.3,0-1.5,0-1.7,0c-0.1,0-0.1,0-0.1,0.1v0.9c0,1.1,0,1.9,0.1,2.4
		c0,0.3,0.1,0.6,0.4,0.6c0.2,0,0.4,0,0.5,0c0.1,0,0.1,0,0.1,0.1c0,0.1-0.1,0.1-0.2,0.1c-0.6,0-1.3,0-1.4,0c-0.1,0-0.8,0-1.1,0
		c-0.1,0-0.2,0-0.2-0.1c0,0,0-0.1,0.1-0.1c0.1,0,0.2,0,0.3,0c0.2,0,0.3-0.3,0.3-0.6c0.1-0.5,0.1-1.3,0.1-2.4V52.3z"/>
	<path class="st0" d="M76.8,54.2c0,1.1,0,1.9,0.1,2.4c0,0.3,0.1,0.6,0.4,0.6c0.2,0,0.4,0,0.5,0c0.1,0,0.1,0,0.1,0.1
		c0,0.1-0.1,0.1-0.2,0.1c-0.6,0-1.3,0-1.4,0c-0.1,0-0.7,0-1.1,0c-0.1,0-0.2,0-0.2-0.1c0,0,0-0.1,0.1-0.1c0.1,0,0.2,0,0.3,0
		c0.2,0,0.3-0.3,0.3-0.6c0.1-0.5,0.1-1.3,0.1-2.4l0-4.7l-1.6,0c-0.7,0-0.9,0.1-1.1,0.4c-0.1,0.2-0.2,0.3-0.2,0.3
		c0,0.1-0.1,0.1-0.1,0.1c0,0,0,0-0.1-0.1c0-0.1,0.2-1.1,0.2-1.2c0-0.1,0.1-0.2,0.1-0.2c0.1,0,0.2,0.1,0.5,0.1c0.3,0,0.7,0.1,0.9,0.1
		h4.1c0.7,0,1-0.1,1.1-0.1c0.1,0,0.1,0.1,0.1,0.1c0,0.3,0,1.1,0,1.2c0,0.1,0,0.1-0.1,0.1c-0.1,0-0.1,0-0.1-0.2l0-0.1
		c0-0.3-0.3-0.6-1.4-0.6l-1.4,0V54.2z"/>
	<path class="st0" d="M81,52.3c0-1.7,0-2,0-2.4c0-0.4-0.1-0.5-0.5-0.6c-0.1,0-0.3,0-0.4,0c0,0-0.1,0-0.1-0.1c0-0.1,0-0.1,0.2-0.1
		c0.5,0,1.2,0,1.3,0c0.1,0,2.3,0,2.5,0c0.2,0,0.4,0,0.5-0.1c0.1,0,0.1-0.1,0.2-0.1c0,0,0,0,0,0.1c0,0.1-0.1,0.2-0.1,0.5
		c0,0.1,0,0.6-0.1,0.7c0,0.1,0,0.1-0.1,0.1c-0.1,0-0.1-0.1-0.1-0.1c0-0.1,0-0.3-0.1-0.4c-0.1-0.2-0.2-0.3-0.8-0.4
		c-0.2,0-1.4,0-1.5,0c0,0-0.1,0-0.1,0.1v3c0,0.1,0,0.1,0.1,0.1c0.1,0,1.5,0,1.7,0c0.3,0,0.4,0,0.5-0.2c0.1-0.1,0.1-0.1,0.2-0.1
		c0,0,0,0,0.1,0.1c0,0.1-0.1,0.3-0.1,0.6c0,0.2,0,0.6,0,0.7c0,0.1,0,0.2-0.1,0.2c0,0-0.1,0-0.1-0.1c0-0.1,0-0.2,0-0.4
		c0-0.2-0.1-0.3-0.6-0.4c-0.3,0-1.4-0.1-1.6-0.1c0,0-0.1,0-0.1,0.1v1c0,0.4,0,1.7,0,1.9c0,0.8,0.2,0.9,1.3,0.9c0.3,0,0.8,0,1.1-0.1
		c0.3-0.1,0.4-0.3,0.5-0.8c0-0.1,0-0.2,0.1-0.2c0.1,0,0.1,0.1,0.1,0.2c0,0.1-0.1,0.8-0.1,1.1c-0.1,0.3-0.2,0.3-0.6,0.3
		c-1.7,0-2.4-0.1-2.7-0.1c-0.1,0-0.7,0-1.1,0c-0.1,0-0.2,0-0.2-0.1c0,0,0-0.1,0.1-0.1c0.1,0,0.2,0,0.3,0c0.2,0,0.3-0.3,0.3-0.6
		c0.1-0.5,0.1-1.3,0.1-2.4L81,52.3z"/>
	<path class="st0" d="M86.3,56.4c-1.1-1-1.3-2.2-1.3-3.3c0-0.7,0.3-2,1.2-3c0.7-0.7,1.7-1.2,3.4-1.2c0.4,0,1.1,0,1.6,0.1
		c0.4,0.1,0.8,0.1,1.1,0.2c0.1,0,0.1,0.1,0.2,0.1c0,0.1,0,0.2-0.1,0.6c0,0.4,0,1,0,1.1c0,0.2,0,0.2-0.1,0.2c-0.1,0-0.1-0.1-0.1-0.2
		c0-0.4-0.2-0.9-0.5-1.1c-0.4-0.3-1.2-0.6-2.2-0.6c-1.5,0-2.2,0.4-2.5,0.8c-0.8,0.8-1,1.8-1,2.9c0,2.1,1.6,4,4,4
		c0.8,0,1.5-0.1,1.9-0.6c0.2-0.2,0.4-0.7,0.4-0.9c0-0.1,0-0.2,0.1-0.2c0.1,0,0.1,0.1,0.1,0.2c0,0.1-0.1,1-0.2,1.4
		c-0.1,0.2-0.1,0.2-0.3,0.3c-0.4,0.2-1.3,0.3-2,0.3C88.2,57.6,87.1,57.2,86.3,56.4z"/>
	<path class="st0" d="M100.4,54.2c0,1.1,0,1.9,0.1,2.4c0,0.3,0.1,0.6,0.4,0.6c0.1,0,0.4,0,0.5,0c0.1,0,0.1,0,0.1,0.1
		c0,0.1-0.1,0.1-0.2,0.1c-0.6,0-1.3,0-1.4,0c-0.1,0-0.7,0-1.1,0c-0.1,0-0.2,0-0.2-0.1c0,0,0-0.1,0.1-0.1c0.1,0,0.2,0,0.3,0
		c0.2,0,0.3-0.3,0.3-0.6c0.1-0.5,0.1-1.3,0.1-2.4l0-1.2c0,0,0-0.1-0.1-0.1h-4.7c0,0-0.1,0-0.1,0.1l0,1.2c0,1.1,0,1.9,0.1,2.4
		c0,0.3,0.1,0.6,0.4,0.6c0.2,0,0.4,0,0.5,0c0.1,0,0.1,0,0.1,0.1c0,0.1-0.1,0.1-0.2,0.1c-0.6,0-1.3,0-1.4,0c-0.1,0-0.8,0-1.1,0
		c-0.1,0-0.2,0-0.2-0.1c0,0,0-0.1,0.1-0.1c0.1,0,0.2,0,0.3,0c0.2,0,0.3-0.3,0.3-0.6c0.1-0.5,0.1-1.3,0.1-2.4v-2c0-1.7,0-2,0-2.4
		c0-0.4-0.1-0.5-0.5-0.6c-0.1,0-0.3,0-0.4,0c0,0-0.1,0-0.1-0.1c0-0.1,0.1-0.1,0.2-0.1c0.5,0,1.2,0,1.2,0c0.1,0,0.8,0,1.1,0
		c0.1,0,0.2,0,0.2,0.1c0,0,0,0.1-0.1,0.1c-0.1,0-0.1,0-0.3,0c-0.3,0.1-0.4,0.2-0.4,0.6c0,0.4,0,0.7,0,2.4v0.2c0,0,0,0.1,0.1,0.1
		l4.7,0c0,0,0.1,0,0.1-0.1l0-0.2c0-1.7,0-2,0-2.4c0-0.4-0.1-0.5-0.5-0.6c-0.1,0-0.3,0-0.4,0c0,0-0.1,0-0.1-0.1
		c0-0.1,0.1-0.1,0.2-0.1c0.5,0,1.2,0,1.3,0c0.1,0,0.8,0,1.1,0c0.1,0,0.2,0,0.2,0.1c0,0,0,0.1-0.1,0.1c-0.1,0-0.1,0-0.3,0
		c-0.3,0.1-0.4,0.2-0.4,0.6c0,0.4,0,0.7,0,2.4V54.2z"/>
	<path class="st0" d="M103.1,55.9c0,0.9,0.1,1.2,0.4,1.3c0.2,0.1,0.5,0.1,0.5,0.1c0.1,0,0.1,0,0.1,0.1c0,0.1-0.1,0.1-0.2,0.1
		c-0.6,0-1.1,0-1.2,0c-0.1,0-0.6,0-1.1,0c-0.1,0-0.2,0-0.2-0.1c0,0,0-0.1,0.1-0.1c0.1,0,0.3,0,0.5-0.1c0.3-0.1,0.3-0.4,0.3-1.4
		l0-6.3c0-0.4,0-0.6,0.1-0.6c0.1,0,0.3,0.2,0.4,0.4c0.2,0.2,1.8,2,3.5,3.8c1.1,1.2,2.3,2.5,2.6,2.9l-0.1-5.6c0-0.7-0.1-1-0.4-1
		c-0.2,0-0.5-0.1-0.5-0.1c-0.1,0-0.1,0-0.1-0.1c0-0.1,0.1-0.1,0.2-0.1c0.5,0,1,0,1.1,0c0.1,0,0.5,0,0.9,0c0.1,0,0.2,0,0.2,0.1
		c0,0,0,0.1-0.1,0.1c0,0-0.1,0-0.3,0c-0.4,0.1-0.4,0.3-0.4,1l0,6.5c0,0.7,0,0.8-0.1,0.8c-0.1,0-0.2-0.1-0.8-0.7
		c-0.1-0.1-1.7-1.7-2.9-3c-1.3-1.4-2.5-2.8-2.9-3.2L103.1,55.9z"/>
	<path class="st0" d="M114.4,48.9c2.5,0,4.3,1.6,4.3,4.1c0,2.5-1.7,4.5-4.3,4.5v-0.4c0.1,0,0.2,0,0.2,0c1,0,3-0.6,3.1-3.8
		c0-2.6-1.6-4-3.3-4.1L114.4,48.9L114.4,48.9z M114.4,57.6L114.4,57.6c-3.1,0-4.3-2.4-4.3-4.3c0-1.8,1.3-4.3,4.3-4.3v0.4l-0.1,0
		c-1.8,0-3.2,1.2-3.2,3.6c0,2.5,1.4,4.1,3.3,4.2V57.6z"/>
	<path class="st0" d="M120.3,54.2c0,1.6,0,2.3,0.2,2.5c0.2,0.2,0.5,0.3,1.3,0.3c0.6,0,1.1,0,1.3-0.3c0.1-0.2,0.2-0.5,0.3-0.7
		c0-0.1,0-0.1,0.1-0.1c0.1,0,0.1,0,0.1,0.2c0,0.1-0.1,0.8-0.2,1.1c-0.1,0.3-0.1,0.3-0.7,0.3c-1.6,0-2.3-0.1-3-0.1
		c-0.1,0-0.8,0-1.1,0c-0.1,0-0.2,0-0.2-0.1c0,0,0-0.1,0.1-0.1c0.1,0,0.2,0,0.3,0c0.2,0,0.3-0.3,0.3-0.6c0.1-0.5,0.1-1.3,0.1-2.4
		l0-1.9c0-1.7,0-2,0-2.4c0-0.4-0.1-0.5-0.5-0.6c-0.1,0-0.3,0-0.4,0c0,0-0.1,0-0.1-0.1c0-0.1,0.1-0.1,0.2-0.1c0.5,0,1.2,0,1.2,0
		c0.1,0,0.9,0,1.2,0c0.1,0,0.2,0,0.2,0.1c0,0,0,0.1-0.1,0.1c-0.1,0-0.2,0-0.4,0c-0.3,0.1-0.4,0.2-0.4,0.6c0,0.4,0,0.7,0,2.4
		L120.3,54.2z"/>
	<path class="st0" d="M127.7,48.9c2.5,0,4.3,1.6,4.3,4.1c0,2.5-1.7,4.5-4.4,4.5v-0.4c0.1,0,0.2,0,0.2,0c1,0,3.1-0.6,3.1-3.8
		c0-2.6-1.6-4-3.3-4.1L127.7,48.9L127.7,48.9z M127.7,57.6L127.7,57.6c-3.1,0-4.3-2.4-4.3-4.3c0-1.8,1.3-4.3,4.3-4.3v0.4l-0.1,0
		c-1.8,0-3.2,1.2-3.2,3.6c0,2.5,1.4,4.1,3.3,4.2V57.6z"/>
	<path class="st0" d="M138.8,54.6c0-0.9-0.1-1-0.5-1.1c-0.1,0-0.3,0-0.4,0c0,0-0.1,0-0.1-0.1c0-0.1,0.1-0.1,0.2-0.1
		c0.5,0,1.2,0,1.3,0c0.1,0,0.8,0,1.1,0c0.1,0,0.2,0,0.2,0.1c0,0,0,0.1-0.1,0.1c-0.1,0-0.1,0-0.3,0c-0.3,0.1-0.4,0.2-0.4,0.6
		c0,0.3,0,0.7,0,1.1v1.2c0,0.5,0,0.5-0.1,0.6c-0.7,0.4-1.7,0.5-2.3,0.5c-0.8,0-2.4-0.1-3.6-1.2c-0.7-0.6-1.3-1.8-1.3-3.2
		c0-1.8,0.9-3,1.8-3.6c1-0.6,2.1-0.7,2.9-0.7c0.7,0,1.5,0.1,1.7,0.2c0.2,0.1,0.6,0.1,0.9,0.1c0.1,0,0.1,0.1,0.1,0.1
		c0,0.1-0.1,0.5-0.1,1.6c0,0.2,0,0.2-0.1,0.2c-0.1,0-0.1-0.1-0.1-0.2c0-0.2-0.1-0.5-0.2-0.7c-0.3-0.4-1.2-0.9-2.6-0.9
		c-0.7,0-1.5,0.1-2.4,0.7c-0.6,0.5-1.1,1.5-1.1,2.8c0,1.6,0.8,2.7,1.2,3.1c0.9,0.9,1.9,1.2,2.9,1.2c0.4,0,1-0.1,1.3-0.2
		c0.1-0.1,0.2-0.2,0.2-0.4V54.6z"/>
	<path class="st0" d="M143.7,54.6c0-0.6-0.1-0.8-0.3-1.2c-0.1-0.2-1.6-2.6-1.9-3.2c-0.3-0.4-0.6-0.7-0.8-0.8
		c-0.2-0.1-0.4-0.2-0.5-0.2c-0.1,0,0.1,0,0.1-0.1c0,0-0.2-0.1-0.1-0.1c0.2,0,1,0,1.1,0c0.1,0,0.5,0,0.9,0c0.1,0,0.1,0,0.1,0.1
		c0,0-0.1,0.1-0.2,0.1c-0.1,0-0.1,0.1-0.1,0.2c0,0.1,0.1,0.3,0.1,0.4c0.2,0.3,1.8,3.2,2,3.5c0.2-0.5,1.6-2.9,1.8-3.2
		c0.1-0.2,0.2-0.4,0.2-0.6c0-0.2,0-0.3-0.2-0.3c-0.1,0-0.2-0.1-0.2-0.1c0,0,0.1-0.1,0.2-0.1c0.3,0,0.6,0,0.7,0c0.1,0,0.9,0,1.1,0
		c0.1,0,0.1,0,0.1,0.1c0,0.1-0.1,0.1-0.1,0.1c-0.1,0-0.3,0-0.5,0.2c-0.2,0.1-0.3,0.3-0.6,0.6c-0.4,0.4-1.9,3-2.1,3.5
		c-0.2,0.4-0.2,0.7-0.2,1.1v1c0,0.2,0,0.6,0,1.1c0,0.3,0.1,0.6,0.4,0.6c0.2,0,0.4,0,0.5,0c0.1,0,0.1,0,0.1,0.1c0,0.1,0,0.1-0.2,0.1
		c-0.6,0-1.3,0-1.4,0c-0.1,0-0.8,0-1.1,0c-0.1,0-0.2,0-0.2-0.1c0,0,0-0.1,0.1-0.1c0.1,0,0.2,0,0.3,0c0.2,0,0.3-0.3,0.3-0.6
		c0-0.5,0-0.9,0-1.1V54.6z"/>
	<path class="st0" d="M19.1,56.3c-1.1-1-1.3-2.2-1.3-3.2c0-0.7,0.2-2,1.2-3c0.7-0.7,1.7-1.2,3.3-1.2c0.4,0,1.1,0,1.6,0.1
		c0.4,0.1,0.8,0.1,1.1,0.2c0.1,0,0.1,0.1,0.1,0.1c0,0.1,0,0.2-0.1,0.6c0,0.4,0,1,0,1.1c0,0.2,0,0.2-0.1,0.2c-0.1,0-0.1-0.1-0.1-0.2
		c0-0.4-0.2-0.9-0.5-1.1c-0.4-0.3-1.2-0.6-2.2-0.6c-1.5,0-2.1,0.4-2.5,0.8c-0.8,0.8-1,1.7-1,2.9c0,2.1,1.6,4,4,4
		c0.8,0,1.5-0.1,1.9-0.5c0.2-0.2,0.4-0.7,0.4-0.9c0-0.1,0-0.2,0.1-0.2c0.1,0,0.1,0.1,0.1,0.2c0,0.1-0.1,1-0.2,1.4
		c-0.1,0.2-0.1,0.2-0.3,0.3c-0.4,0.2-1.3,0.3-2,0.3C21.1,57.5,20,57.1,19.1,56.3z"/>
	<path class="st0" d="M35.1,52.3c0-1.7,0-2,0-2.4c0-0.4-0.1-0.5-0.5-0.6c-0.1,0-0.3,0-0.4,0c0,0-0.1,0-0.1-0.1
		c0-0.1,0.1-0.1,0.2-0.1c0.5,0,1.2,0,1.2,0c0.1,0,2.3,0,2.5,0c0.2,0,0.4,0,0.5-0.1c0.1,0,0.1-0.1,0.2-0.1c0,0,0,0,0,0.1
		c0,0.1-0.1,0.2-0.1,0.5c0,0.1,0,0.6-0.1,0.7c0,0.1,0,0.1-0.1,0.1c-0.1,0-0.1-0.1-0.1-0.1c0-0.1,0-0.3-0.1-0.4
		c-0.1-0.2-0.2-0.3-0.8-0.4c-0.2,0-1.4,0-1.5,0c0,0-0.1,0-0.1,0.1l0,3c0,0.1,0,0.1,0.1,0.1c0.1,0,1.5,0,1.7,0c0.3,0,0.4,0,0.5-0.1
		c0.1-0.1,0.1-0.1,0.2-0.1c0,0,0.1,0,0.1,0.1c0,0.1-0.1,0.3-0.1,0.6c0,0.2,0,0.6,0,0.7c0,0.1,0,0.2-0.1,0.2c-0.1,0-0.1,0-0.1-0.1
		c0-0.1,0-0.2,0-0.4c0-0.2-0.1-0.3-0.6-0.4c-0.3,0-1.4-0.1-1.6-0.1c-0.1,0-0.1,0-0.1,0.1l0,1c0,0.4,0,1.6,0,1.9
		c0,0.8,0.2,0.9,1.3,0.9c0.3,0,0.8,0,1-0.1c0.3-0.1,0.4-0.3,0.5-0.8c0-0.1,0-0.2,0.1-0.2c0.1,0,0.1,0.1,0.1,0.2
		c0,0.1-0.1,0.8-0.1,1.1c-0.1,0.3-0.2,0.3-0.6,0.3c-1.7,0-2.4-0.1-2.7-0.1c-0.1,0-0.7,0-1.1,0c-0.1,0-0.2,0-0.2-0.1
		c0,0,0-0.1,0.1-0.1c0.1,0,0.2,0,0.3,0c0.2-0.1,0.3-0.3,0.3-0.6c0.1-0.5,0.1-1.3,0.1-2.4L35.1,52.3z"/>
	<path class="st0" d="M43.2,49.1c0.1-0.2,0.1-0.2,0.1-0.2c0.1,0,0.1,0.1,0.2,0.4c0.2,0.4,1.9,4.9,2.5,6.6c0.4,1,0.7,1.2,0.9,1.2
		c0.2,0.1,0.3,0.1,0.4,0.1c0.1,0,0.1,0,0.1,0.1c0,0.1-0.1,0.1-0.2,0.1c-0.2,0-1,0-1.7,0c-0.2,0-0.3,0-0.3-0.1c0,0,0-0.1,0.1-0.1
		c0.1,0,0.1-0.1,0.1-0.3l-1-2.7c0,0,0-0.1-0.1-0.1l-1.2,0v-0.4h1c0,0,0,0,0-0.1l-1-3c0,0,0-0.1,0-0.1V49.1z M43.1,49.4
		c0-0.1,0.1-0.2,0.1-0.2v1.5c0,0-0.1,0-0.1,0.1l-1,3c0,0,0,0.1,0,0.1h1v0.4l-1.2,0c-0.1,0-0.1,0-0.1,0.1l-0.7,1.9
		c-0.1,0.3-0.1,0.5-0.1,0.7c0,0.2,0.2,0.3,0.4,0.3h0.1c0.1,0,0.1,0,0.1,0.1c0,0.1-0.1,0.1-0.2,0.1c-0.3,0-0.7,0-0.9,0
		c-0.1,0-0.7,0-1.2,0c-0.1,0-0.2,0-0.2-0.1c0,0,0-0.1,0.1-0.1c0.1,0,0.2,0,0.3,0c0.5-0.1,0.7-0.5,0.9-1L43.1,49.4z"/>
	<path class="st0" d="M49.7,54.2c0,1,0,1.9,0.1,2.4c0,0.3,0.1,0.6,0.4,0.6c0.2,0,0.4,0,0.5,0c0.1,0,0.1,0,0.1,0.1
		c0,0.1,0,0.1-0.2,0.1c-0.6,0-1.3,0-1.3,0c-0.1,0-0.7,0-1.1,0c-0.1,0-0.2,0-0.2-0.1c0,0,0-0.1,0.1-0.1c0.1,0,0.2,0,0.3,0
		c0.2,0,0.3-0.3,0.3-0.6c0.1-0.5,0.1-1.3,0.1-2.4v-4.6l-1.6,0c-0.7,0-0.9,0.1-1.1,0.4c-0.1,0.2-0.2,0.3-0.2,0.3
		c0,0.1-0.1,0.1-0.1,0.1c0,0-0.1,0-0.1-0.1c0-0.1,0.2-1.1,0.2-1.1c0-0.1,0.1-0.2,0.1-0.2c0.1,0,0.2,0.1,0.5,0.1
		c0.3,0,0.7,0.1,0.9,0.1h4.1c0.7,0,1-0.1,1.1-0.1c0.1,0,0.1,0.1,0.1,0.1c0,0.3,0,1.1,0,1.2c0,0.1,0,0.1-0.1,0.1
		c-0.1,0-0.1,0-0.1-0.2l0-0.1c0-0.3-0.3-0.6-1.4-0.6l-1.4,0V54.2z"/>
	<path class="st0" d="M54.8,54.2c0,1,0,1.9,0.1,2.4c0,0.3,0.1,0.6,0.4,0.6c0.2,0,0.4,0,0.5,0c0.1,0,0.1,0,0.1,0.1
		c0,0.1-0.1,0.1-0.2,0.1c-0.6,0-1.3,0-1.3,0c-0.1,0-0.8,0-1.1,0c-0.1,0-0.2,0-0.2-0.1c0,0,0-0.1,0.1-0.1c0.1,0,0.2,0,0.3,0
		c0.2-0.1,0.3-0.3,0.3-0.6c0.1-0.5,0.1-1.3,0.1-2.4l0-1.9c0-1.7,0-2,0-2.4c0-0.4-0.1-0.6-0.4-0.6c-0.1,0-0.3,0-0.3,0
		c0,0-0.1,0-0.1-0.1c0-0.1,0-0.1,0.2-0.1c0.4,0,1.1,0,1.1,0c0.1,0,0.7,0,1.1,0c0.1,0,0.2,0,0.2,0.1c0,0,0,0.1-0.1,0.1
		c-0.1,0-0.1,0-0.3,0c-0.3,0.1-0.4,0.2-0.4,0.6c0,0.3,0,0.7,0,2.4L54.8,54.2z"/>
	<path class="st0" d="M60.4,56c0.6-1.5,2.1-5.3,2.3-6.1c0.1-0.2,0.1-0.3,0.1-0.4c0-0.1,0-0.2-0.1-0.3c-0.1,0-0.3,0-0.4,0
		c-0.1,0-0.1,0-0.1-0.1c0-0.1,0.1-0.1,0.2-0.1c0.4,0,0.9,0,1.1,0c0.1,0,0.5,0,0.9,0c0.1,0,0.2,0,0.2,0.1c0,0.1,0,0.1-0.1,0.1
		c-0.1,0-0.3,0-0.5,0.1c-0.1,0.1-0.3,0.3-0.6,1c-0.1,0.3-0.7,1.6-1.2,3c-0.7,1.6-1.2,2.8-1.4,3.3c-0.3,0.7-0.3,0.8-0.5,0.8
		c-0.1,0-0.2-0.2-0.4-0.7l-2.7-6.7c-0.2-0.6-0.4-0.7-0.8-0.8c-0.2,0-0.4,0-0.4,0c-0.1,0-0.1,0-0.1-0.1c0-0.1,0.1-0.1,0.3-0.1
		c0.5,0,1.1,0,1.3,0c0.1,0,0.6,0,1,0c0.2,0,0.3,0,0.3,0.1c0,0.1,0,0.1-0.1,0.1c-0.1,0-0.3,0-0.4,0.1C58,49.4,58,49.4,58,49.5
		c0,0.1,0.1,0.5,0.3,0.9L60.4,56z"/>
	<path class="st0" d="M65.7,52.3c0-1.7,0-2,0-2.4c0-0.4-0.1-0.5-0.5-0.6c-0.1,0-0.3,0-0.4,0c0,0-0.1,0-0.1-0.1
		c0-0.1,0.1-0.1,0.2-0.1c0.5,0,1.2,0,1.2,0c0.1,0,2.3,0,2.5,0c0.2,0,0.4,0,0.5-0.1c0.1,0,0.1-0.1,0.2,0c0,0,0,0,0,0.1
		c0,0.1-0.1,0.2-0.1,0.5c0,0.1,0,0.6,0,0.7c0,0.1,0,0.1-0.1,0.1c-0.1,0-0.1-0.1-0.1-0.1c0-0.1,0-0.3-0.1-0.4
		c-0.1-0.2-0.2-0.3-0.8-0.4c-0.2,0-1.4,0-1.5,0c0,0-0.1,0-0.1,0.1v3c0,0.1,0,0.1,0.1,0.1c0.1,0,1.5,0,1.7,0c0.3,0,0.4,0,0.5-0.2
		c0.1-0.1,0.1-0.1,0.2-0.1c0,0,0.1,0,0.1,0.1c0,0.1-0.1,0.2-0.1,0.6c0,0.2-0.1,0.6,0,0.7c0,0.1,0,0.2-0.1,0.2c-0.1,0-0.1,0-0.1-0.1
		c0-0.1,0-0.2,0-0.4c0-0.2-0.1-0.3-0.6-0.4c-0.3,0-1.4-0.1-1.6-0.1c-0.1,0-0.1,0-0.1,0.1v1c0,0.4,0,1.6,0,1.9c0,0.8,0.2,0.9,1.3,0.9
		c0.3,0,0.8,0,1-0.1c0.3-0.1,0.4-0.3,0.5-0.8c0-0.1,0-0.2,0.1-0.2c0.1,0,0.1,0.1,0.1,0.2c0,0.1-0.1,0.8-0.2,1.1
		c-0.1,0.3-0.2,0.3-0.6,0.3c-1.7,0-2.4-0.1-2.7-0.1c-0.1,0-0.7,0-1.1,0c-0.1,0-0.2,0-0.2-0.1c0,0,0-0.1,0.1-0.1c0.1,0,0.2,0,0.3,0
		c0.2,0,0.3-0.3,0.3-0.6c0.1-0.5,0.1-1.3,0.1-2.4V52.3z"/>
	<path class="st0" d="M24.6,37.9c0,2.1,0.3,2.7,1,2.9c0.5,0.1,1,0.1,1.3,0.1c0.1,0,0.2,0.1,0.2,0.1c0,0.1-0.2,0.2-0.5,0.2
		c-1.4,0-2.4-0.1-2.7-0.1c-0.2,0-1.3,0.1-2.4,0.1c-0.2,0-0.4,0-0.4-0.2c0-0.1,0.1-0.1,0.2-0.1c0.2,0,0.6,0,1-0.1
		c0.6-0.2,0.7-0.9,0.7-3.2l0-14.3c0-1,0.1-1.2,0.3-1.2c0.2,0,0.6,0.6,0.9,0.8c0.4,0.4,4.1,4.5,8,8.6c2.5,2.7,5.2,5.7,6,6.5L38,25.2
		c0-1.6-0.2-2.2-1-2.4c-0.5-0.1-1-0.1-1.2-0.1c-0.2,0-0.2-0.1-0.2-0.2c0-0.2,0.2-0.2,0.5-0.2c1.1,0,2.3,0.1,2.6,0.1
		c0.3,0,1.1-0.1,2.1-0.1c0.3,0,0.5,0,0.5,0.2c0,0.1-0.1,0.2-0.3,0.2c-0.1,0-0.3,0-0.6,0.1c-0.8,0.2-0.9,0.7-0.9,2.2l0,14.7
		c0,1.6-0.1,1.8-0.2,1.8c-0.2,0-0.5-0.3-1.8-1.6c-0.3-0.3-3.9-3.9-6.5-6.8c-2.9-3.1-5.7-6.3-6.5-7.2L24.6,37.9z"/>
	<path class="st0" d="M138,34.9c0-1.4-0.3-1.9-0.6-2.7c-0.2-0.4-3.6-6-4.5-7.3c-0.6-0.9-1.3-1.6-1.7-1.9c-0.4-0.3-0.9-0.4-1.1-0.4
		c-0.1,0-0.3,0-0.3-0.2c0-0.1,0.1-0.2,0.3-0.2c0.5,0,2.4,0.1,2.5,0.1c0.2,0,1.1-0.1,2.1-0.1c0.3,0,0.3,0.1,0.3,0.2
		c0,0.1-0.1,0.1-0.4,0.2c-0.2,0.1-0.3,0.3-0.3,0.5c0,0.3,0.1,0.6,0.3,1c0.4,0.7,4.2,7.3,4.7,8c0.5-1.1,3.7-6.6,4.2-7.5
		c0.3-0.5,0.4-1,0.4-1.3c0-0.4-0.1-0.6-0.4-0.7c-0.2-0.1-0.4-0.1-0.4-0.3c0-0.1,0.2-0.2,0.4-0.2c0.7,0,1.5,0.1,1.7,0.1
		c0.2,0,2-0.1,2.5-0.1c0.2,0,0.3,0,0.3,0.2c0,0.1-0.1,0.2-0.3,0.2c-0.3,0-0.8,0.1-1.2,0.4c-0.5,0.3-0.8,0.6-1.3,1.3
		c-0.8,1-4.4,7-4.9,8.1c-0.4,0.9-0.4,1.7-0.4,2.5v2.2c0,0.4,0,1.5,0.1,2.5c0.1,0.7,0.3,1.3,1,1.4c0.4,0.1,0.9,0.1,1.1,0.1
		c0.2,0,0.2,0.1,0.2,0.2c0,0.1-0.1,0.2-0.4,0.2c-1.4,0-3-0.1-3.1-0.1c-0.1,0-1.7,0.1-2.5,0.1c-0.3,0-0.4-0.1-0.4-0.2
		c0-0.1,0.1-0.2,0.2-0.2c0.2,0,0.5,0,0.8-0.1c0.5-0.1,0.7-0.7,0.8-1.4c0.1-1.1,0.1-2.1,0.1-2.5V34.9z"/>
	<path class="st0" d="M4.8,29.6c0-3.9,0-4.6-0.1-5.5c0-0.9-0.3-1.3-1.1-1.4c-0.2,0-0.6-0.1-0.9-0.1c-0.1,0-0.2,0-0.2-0.2
		c0-0.1,0.1-0.2,0.4-0.2c1.1,0,2.7,0.1,2.9,0.1c0.2,0,1.7-0.1,2.5-0.1c0.3,0,0.4,0.1,0.4,0.2c0,0.1-0.1,0.2-0.2,0.2
		c-0.2,0-0.3,0-0.6,0.1c-0.7,0.1-0.9,0.6-0.9,1.4C7,25,7,25.7,7,29.6v3.5c0,3.6,0.8,5.2,1.9,6.2c1.2,1.2,2.4,1.4,3.8,1.4
		c1.5,0,3.1-0.7,4-1.8c1.2-1.4,1.5-3.6,1.5-6.2v-3.2c0-3.9,0-4.6,0-5.5c0-0.9-0.3-1.3-1.1-1.4c-0.2,0-0.6-0.1-0.9-0.1
		c-0.1,0-0.2,0-0.2-0.2c0-0.1,0.1-0.2,0.4-0.2c1.1,0,2.5,0.1,2.7,0.1c0.2,0,1.4-0.1,2.1-0.1c0.3,0,0.4,0.1,0.4,0.2
		c0,0.1-0.1,0.2-0.2,0.2c-0.2,0-0.3,0-0.6,0.1c-0.7,0.1-0.9,0.6-0.9,1.4c0,0.8,0,1.5,0,5.5v2.7c0,2.7-0.3,5.8-2.3,7.5
		c-1.8,1.6-3.7,1.9-5.2,1.9c-0.9,0-3.4-0.1-5.2-1.8c-1.2-1.2-2.2-3-2.2-6.6V29.6z"/>
	<path class="st0" d="M46.2,34.1c0,2.4,0,4.4,0.1,5.5c0.1,0.7,0.2,1.3,1,1.4c0.4,0.1,0.9,0.1,1.1,0.1c0.2,0,0.2,0.1,0.2,0.2
		c0,0.1-0.1,0.2-0.4,0.2c-1.4,0-3-0.1-3.1-0.1c-0.1,0-1.7,0.1-2.5,0.1c-0.3,0-0.4-0.1-0.4-0.2c0-0.1,0.1-0.2,0.2-0.2
		c0.2,0,0.5-0.1,0.8-0.1c0.5-0.1,0.6-0.7,0.7-1.4c0.1-1.1,0.1-3.1,0.1-5.5v-4.4c0-3.9,0-4.6,0-5.5c0-0.9-0.3-1.3-0.9-1.4
		c-0.3-0.1-0.6-0.1-0.8-0.1c-0.1,0-0.2,0-0.2-0.2c0-0.1,0.1-0.2,0.4-0.2c0.8,0,2.4,0.1,2.6,0.1c0.1,0,1.7-0.1,2.5-0.1
		c0.3,0,0.4,0.1,0.4,0.2c0,0.1-0.1,0.2-0.2,0.2c-0.2,0-0.3,0-0.6,0.1c-0.7,0.1-0.9,0.6-0.9,1.4c0,0.8,0,1.5,0,5.5V34.1z"/>
	<path class="st0" d="M58.9,38.3c1.5-3.4,4.8-12.2,5.4-14c0.1-0.4,0.2-0.7,0.2-1c0-0.2-0.1-0.5-0.3-0.6c-0.3-0.1-0.7-0.1-1-0.1
		c-0.1,0-0.3,0-0.3-0.2c0-0.1,0.2-0.2,0.6-0.2c1,0,2.2,0.1,2.5,0.1c0.2,0,1.2-0.1,2-0.1c0.3,0,0.4,0.1,0.4,0.2
		c0,0.1-0.1,0.2-0.3,0.2c-0.2,0-0.7,0-1.2,0.3c-0.3,0.2-0.7,0.7-1.4,2.4c-0.3,0.7-1.5,3.7-2.8,6.8c-1.5,3.7-2.7,6.4-3.3,7.7
		c-0.7,1.5-0.8,1.9-1.1,1.9c-0.3,0-0.4-0.4-0.9-1.6l-6.2-15.5c-0.6-1.4-0.9-1.7-1.8-1.9c-0.4-0.1-0.8-0.1-1-0.1
		c-0.2,0-0.2-0.1-0.2-0.2c0-0.2,0.3-0.2,0.7-0.2c1.2,0,2.6,0.1,3,0.1c0.3,0,1.4-0.1,2.3-0.1c0.5,0,0.7,0.1,0.7,0.2
		c0,0.1-0.1,0.2-0.3,0.2c-0.3,0-0.7,0-1,0.1c-0.3,0.1-0.3,0.3-0.3,0.5c0,0.3,0.3,1.1,0.7,2.1L58.9,38.3z"/>
	<path class="st0" d="M70.9,29.6c0-3.9,0-4.6-0.1-5.5c-0.1-0.9-0.3-1.3-1.1-1.4c-0.2,0-0.6-0.1-0.9-0.1c-0.1,0-0.2,0-0.2-0.2
		c0-0.1,0.1-0.2,0.4-0.2c1.1,0,2.7,0.1,2.9,0.1c0.2,0,5.2,0,5.8,0c0.5,0,0.9-0.1,1.1-0.1c0.1,0,0.2-0.1,0.4-0.1
		c0.1,0,0.1,0.1,0.1,0.2c0,0.2-0.1,0.5-0.2,1.2c0,0.3-0.1,1.4-0.1,1.7c0,0.1-0.1,0.3-0.2,0.3c-0.2,0-0.2-0.1-0.2-0.3
		c0-0.2,0-0.6-0.2-0.9c-0.2-0.4-0.4-0.7-1.8-0.9c-0.4-0.1-3.2-0.1-3.5-0.1c-0.1,0-0.2,0.1-0.2,0.3v7c0,0.2,0,0.3,0.2,0.3
		c0.3,0,3.4,0,4-0.1c0.6,0,1-0.1,1.2-0.4c0.2-0.2,0.3-0.3,0.4-0.3c0.1,0,0.1,0.1,0.1,0.2c0,0.2-0.1,0.6-0.2,1.4
		c0,0.5-0.1,1.4-0.1,1.6c0,0.2,0,0.5-0.2,0.5c-0.1,0-0.2-0.1-0.2-0.2c0-0.3,0-0.5-0.1-0.8c-0.1-0.4-0.3-0.8-1.3-0.9
		c-0.7-0.1-3.2-0.1-3.6-0.1c-0.1,0-0.2,0.1-0.2,0.2v2.2c0,0.9,0,3.8,0,4.3c0.1,1.7,0.5,2.1,2.9,2.1c0.7,0,1.8,0,2.4-0.3
		c0.7-0.3,1-0.8,1.1-1.8c0-0.3,0.1-0.4,0.2-0.4c0.2,0,0.2,0.2,0.2,0.4c0,0.2-0.2,1.9-0.3,2.4c-0.2,0.7-0.4,0.7-1.4,0.7
		c-3.8,0-5.5-0.2-6.2-0.2c-0.1,0-1.7,0.1-2.5,0.1c-0.3,0-0.4-0.1-0.4-0.2c0-0.1,0-0.2,0.2-0.2c0.2,0,0.5-0.1,0.8-0.1
		c0.5-0.1,0.6-0.7,0.7-1.4c0.1-1.1,0.1-3.1,0.1-5.5V29.6z"/>
	<path class="st0" d="M97.2,41c-0.4-0.2-0.4-0.3-0.4-1c0-1.3,0.1-2.3,0.1-2.7c0-0.3,0.1-0.4,0.2-0.4c0.1,0,0.2,0.1,0.2,0.3
		c0,0.2,0,0.6,0.1,0.9c0.4,1.9,2,2.6,3.7,2.6c2.4,0,3.6-1.7,3.6-3.4c0-1.7-0.7-2.8-2.9-4.5l-1.1-0.9c-2.7-2.2-3.3-3.8-3.3-5.5
		c0-2.7,2-4.5,5.2-4.5c1,0,1.7,0.1,2.3,0.3c0.5,0.1,0.7,0.1,0.9,0.1c0.2,0,0.3,0.1,0.3,0.2c0,0.1-0.1,1-0.1,2.7
		c0,0.4-0.1,0.6-0.2,0.6c-0.2,0-0.2-0.1-0.2-0.3c0-0.3-0.2-1-0.3-1.3c-0.2-0.3-0.8-1.3-3.2-1.3c-1.7,0-3.1,1.1-3.1,2.9
		c0,1.4,0.7,2.3,3.1,4.2l0.7,0.6c3,2.3,3.7,3.9,3.7,5.9c0,1-0.4,3-2.2,4.2c-1.1,0.8-2.4,1.1-3.8,1.1C99.4,41.7,98.2,41.6,97.2,41z"
		/>
	<path class="st0" d="M111.8,34.1c0,2.4,0,4.4,0.1,5.5c0.1,0.7,0.2,1.3,1,1.4c0.4,0.1,0.9,0.1,1.1,0.1c0.1,0,0.2,0.1,0.2,0.2
		c0,0.1-0.1,0.2-0.4,0.2c-1.4,0-3-0.1-3.1-0.1c-0.1,0-1.7,0.1-2.5,0.1c-0.3,0-0.4-0.1-0.4-0.2c0-0.1,0-0.2,0.2-0.2
		c0.2,0,0.5-0.1,0.8-0.1c0.5-0.1,0.6-0.7,0.7-1.4c0.1-1.1,0.1-3.1,0.1-5.5v-4.4c0-3.9,0-4.6-0.1-5.5c-0.1-0.9-0.3-1.3-0.9-1.4
		c-0.3-0.1-0.6-0.1-0.8-0.1c-0.1,0-0.2,0-0.2-0.2c0-0.1,0.1-0.2,0.4-0.2c0.8,0,2.4,0.1,2.5,0.1c0.1,0,1.7-0.1,2.5-0.1
		c0.3,0,0.4,0.1,0.4,0.2c0,0.1-0.1,0.2-0.2,0.2c-0.2,0-0.3,0-0.6,0.1c-0.7,0.1-0.9,0.6-0.9,1.4c0,0.8,0,1.5,0,5.5V34.1z"/>
	<path class="st0" d="M122.9,34.1c0,2.4,0,4.4,0.1,5.5c0.1,0.7,0.2,1.3,1,1.4c0.4,0.1,0.9,0.1,1.1,0.1c0.2,0,0.2,0.1,0.2,0.2
		c0,0.1-0.1,0.2-0.4,0.2c-1.4,0-3-0.1-3.1-0.1c-0.1,0-1.7,0.1-2.5,0.1c-0.3,0-0.4-0.1-0.4-0.2c0-0.1,0-0.2,0.2-0.2
		c0.2,0,0.5-0.1,0.8-0.1c0.5-0.1,0.6-0.7,0.7-1.4c0.1-1.1,0.1-3.1,0.1-5.5V23.4l-3.7,0c-1.6,0-2.2,0.2-2.6,0.8
		c-0.3,0.4-0.4,0.6-0.4,0.8c-0.1,0.2-0.2,0.3-0.2,0.3c-0.1,0-0.1-0.1-0.1-0.2c0-0.3,0.5-2.4,0.6-2.6c0-0.2,0.2-0.5,0.3-0.5
		c0.2,0,0.4,0.3,1.1,0.3c0.7,0.1,1.7,0.1,2,0.1h9.5c1.6,0,2.3-0.3,2.5-0.3c0.1,0,0.1,0.2,0.1,0.3c0,0.8-0.1,2.5-0.1,2.8
		c0,0.2-0.1,0.3-0.2,0.3c-0.1,0-0.2-0.1-0.2-0.4l0-0.3c-0.1-0.8-0.7-1.3-3.1-1.4l-3.2,0V34.1z"/>
	<path class="st0" d="M87.8,22.4c1.2,0.1,2.5,0.3,3.5,1.1c0.6,0.5,1.7,1.7,1.7,3.4c0,1.9-0.8,3.7-3,5.8c0.9,1.1,4,5.5,4,5.5
		c3.2,4.1,6.7,7.5,11.9,7.7c2.1,0.1,2.3-0.8,2.8-0.6c0.5,0.2-1.4,1.1-2.8,1.3c-0.8,0.1-6.8,1.5-13.6-7.5c0,0-3.6-5-4.1-5.7
		c-0.1-0.1-0.2-0.1-0.3-0.1l-0.1,0v-0.8c0.5,0,1.1-0.1,1.6-0.5c0.9-0.6,1.5-2,1.5-3.9c0-2.6-1.2-4.4-3.1-4.9V22.4z M82.7,29.6
		c0-3.9,0-4.6,0-5.4c0-0.9-0.3-1.3-1.1-1.4c-0.2,0-0.6-0.1-0.9-0.1c-0.1,0-0.2,0-0.2-0.1c0-0.2,0.1-0.2,0.4-0.2
		c1.1,0,2.7,0.1,2.8,0.1c0.3,0,2.2-0.1,3-0.1c0.4,0,0.7,0,1.1,0v0.9c-0.4-0.1-0.8-0.1-1.2-0.1c-0.8,0-1.4,0.1-1.7,0.1
		c-0.1,0.1-0.2,0.2-0.2,0.3v8.2c0,0.1,0.1,0.2,0.2,0.3c0.4,0.2,1.5,0.4,2.6,0.4c0.1,0,0.2,0,0.3,0v0.8l-2.9,0
		c-0.1,0-0.2,0.1-0.2,0.2v0.6c0,2.4,0,4.4,0.1,5.5c0.1,0.7,0.2,1.3,1,1.4c0.4,0,0.9,0.1,1.1,0.1c0.2,0,0.2,0.1,0.2,0.2
		c0,0.1-0.1,0.2-0.4,0.2c-1.4,0-3-0.1-3.1-0.1c0,0-1.6,0.1-2.3,0.1c-0.3,0-0.4-0.1-0.4-0.2c0-0.1,0-0.2,0.2-0.2
		c0.2,0,0.5-0.1,0.8-0.1c0.5-0.1,0.6-0.7,0.7-1.4c0.1-1,0.1-3,0.1-5.5V29.6z"/>
	<path class="st0" d="M118.5,16c0,1.8,0.3,2.3,0.8,2.5c0.4,0.1,0.9,0.1,1.1,0.1c0.1,0,0.2,0,0.2,0.1c0,0.1-0.1,0.2-0.4,0.2
		c-1.2,0-2.1-0.1-2.3-0.1c-0.2,0-1.1,0.1-2.1,0.1c-0.2,0-0.3,0-0.3-0.2c0-0.1,0.1-0.1,0.2-0.1c0.2,0,0.6,0,0.9-0.1
		c0.5-0.1,0.6-0.8,0.6-2.7l0-12.3c0-0.8,0.1-1.1,0.2-1.1c0.2,0,0.5,0.5,0.8,0.7c0.3,0.4,3.5,3.8,6.8,7.4c2.1,2.3,4.5,4.9,5.1,5.6
		l-0.2-10.9c0-1.4-0.2-1.9-0.8-2C128.7,3,128.2,3,128,3c-0.2,0-0.2-0.1-0.2-0.2c0-0.1,0.2-0.1,0.4-0.1c1,0,2,0.1,2.2,0.1
		c0.2,0,0.9-0.1,1.8-0.1c0.2,0,0.4,0,0.4,0.1c0,0.1-0.1,0.2-0.2,0.2c-0.1,0-0.3,0-0.5,0.1c-0.7,0.1-0.8,0.6-0.8,1.9l0,12.6
		c0,1.4,0,1.5-0.2,1.5c-0.2,0-0.4-0.2-1.6-1.4c-0.2-0.2-3.3-3.4-5.6-5.8c-2.5-2.7-4.9-5.4-5.6-6.1L118.5,16z"/>
	<path class="st0" d="M6.3,12.8c0,3.1,0.1,4.5,0.5,4.9c0.3,0.3,0.9,0.5,2.6,0.5c1.1,0,2.1,0,2.6-0.6c0.3-0.3,0.5-0.9,0.6-1.3
		c0-0.2,0.1-0.3,0.2-0.3c0.1,0,0.1,0.1,0.1,0.3c0,0.2-0.1,1.5-0.3,2.1c-0.1,0.5-0.2,0.6-1.4,0.6c-3.1,0-4.5-0.1-5.7-0.1
		c-0.2,0-1.5,0.1-2.1,0.1c-0.2,0-0.3,0-0.3-0.2c0-0.1,0-0.1,0.2-0.1c0.2,0,0.5,0,0.6-0.1c0.4-0.1,0.5-0.6,0.6-1.2
		c0.1-0.9,0.1-2.6,0.1-4.7V9c0-3.4,0-4,0-4.6c0-0.7-0.2-1.1-0.9-1.2C3.4,3.1,3,3.1,2.8,3.1c-0.1,0-0.2,0-0.2-0.1
		c0-0.1,0.1-0.2,0.3-0.2c1,0,2.3,0.1,2.4,0.1c0.1,0,1.7-0.1,2.3-0.1c0.2,0,0.3,0,0.3,0.2C8.1,3,8,3.1,7.9,3.1c-0.1,0-0.5,0-0.7,0.1
		C6.6,3.2,6.4,3.6,6.3,4.3c0,0.7,0,1.3,0,4.6V12.8z"/>
	<path class="st0" d="M16.9,12.7c0,2.1,0,3.7,0.1,4.7c0.1,0.6,0.2,1.1,0.8,1.2c0.3,0,0.8,0.1,1,0.1c0.1,0,0.2,0.1,0.2,0.1
		c0,0.1-0.1,0.2-0.3,0.2c-1.2,0-2.5-0.1-2.6-0.1c-0.1,0-1.5,0.1-2.1,0.1c-0.2,0-0.3,0-0.3-0.2c0-0.1,0-0.1,0.2-0.1
		c0.2,0,0.5,0,0.6-0.1c0.4-0.1,0.5-0.6,0.6-1.2c0.1-0.9,0.1-2.6,0.1-4.7V9c0-3.4,0-4,0-4.6c0-0.7-0.3-1.1-0.7-1.2
		c-0.2-0.1-0.5-0.1-0.7-0.1c-0.1,0-0.2,0-0.2-0.1c0-0.1,0.1-0.2,0.3-0.2c0.7,0,2.1,0.1,2.2,0.1c0.1,0,1.5-0.1,2.1-0.1
		c0.2,0,0.3,0,0.3,0.2c0,0.1-0.1,0.1-0.2,0.1c-0.1,0-0.3,0-0.5,0.1c-0.6,0.1-0.8,0.5-0.8,1.2c0,0.7,0,1.3,0,4.6V12.7z"/>
	<path class="st0" d="M38.4,16.2c0.1,0.8,0.2,2,1.1,2.3c0.6,0.2,1.2,0.2,1.4,0.2c0.1,0,0.2,0,0.2,0.1c0,0.1-0.2,0.2-0.4,0.2
		c-0.5,0-2.8-0.1-3.6-0.1c-0.5,0-0.6-0.1-0.6-0.2c0-0.1,0-0.1,0.1-0.2c0.1,0,0.1-0.4,0.1-0.8l-1-11.1h-0.1l-5.3,11.2
		c-0.5,0.9-0.5,1.1-0.7,1.1c-0.1,0-0.3-0.2-0.7-1c-0.5-1.1-2.4-4.8-2.5-5c-0.2-0.4-2.6-5.5-2.8-6.1h-0.1l-0.8,9.9c0,0.3,0,0.7,0,1.1
		c0,0.3,0.2,0.6,0.5,0.7c0.4,0.1,0.7,0.1,0.8,0.1c0.1,0,0.2,0,0.2,0.1c0,0.2-0.1,0.2-0.4,0.2c-0.8,0-1.8-0.1-2-0.1
		c-0.2,0-1.2,0.1-1.8,0.1c-0.2,0-0.4,0-0.4-0.2c0-0.1,0.1-0.1,0.2-0.1c0.2,0,0.3,0,0.6-0.1c0.7-0.1,0.8-1,0.9-1.8l1.5-14
		c0-0.2,0.1-0.4,0.2-0.4c0.1,0,0.2,0.1,0.3,0.3l6.6,13.5l6.3-13.5c0.1-0.2,0.2-0.3,0.3-0.3C36.9,2.5,37,2.6,37,3L38.4,16.2z"/>
	<path class="st0" d="M62.2,2.5c4.8,0,8.4,3,8.4,8c0,4.8-3.4,8.7-8.5,8.8v-0.8c0.2,0,0.3,0,0.5,0c1.9,0,5.9-1.1,5.9-7.4
		c0-5.1-3.1-7.8-6.4-7.9L62.2,2.5L62.2,2.5z M62.2,19.3L62.2,19.3c-6,0-8.4-4.6-8.4-8.4c0-3.5,2.5-8.4,8.4-8.4v0.7l-0.1,0
		c-3.6,0-6.3,2.3-6.3,7c0,4.8,2.8,7.9,6.4,8.2V19.3z"/>
	<path class="st0" d="M101.5,16L101.5,16c0.6-2,2.6-8.2,3.4-10.9c0.2-0.8,0.2-1.1,0.2-1.4c0-0.4-0.2-0.6-1.2-0.6
		c-0.1,0-0.2-0.1-0.2-0.1c0-0.1,0.1-0.1,0.4-0.1c1.1,0,2,0.1,2.2,0.1c0.2,0,1.1-0.1,1.7-0.1c0.2,0,0.3,0,0.3,0.1
		c0,0.1-0.1,0.2-0.2,0.2c-0.1,0-0.5,0-0.7,0.1c-0.6,0.2-1,1.1-1.4,2.3c-0.9,2.7-3.1,9.5-4,11.9c-0.5,1.6-0.7,1.8-0.9,1.8
		c-0.2,0-0.3-0.3-0.6-1.1L96.2,6.2l0,0c-0.8,2.1-3.7,9.9-4.5,11.9c-0.3,0.9-0.4,1.1-0.7,1.1c-0.2,0-0.3-0.2-0.8-1.7L86.4,4.9
		c-0.3-1.1-0.6-1.5-1.2-1.7c-0.3-0.1-0.8-0.1-1-0.1c-0.1,0-0.2,0-0.2-0.1c0-0.1,0.1-0.1,0.3-0.1c1.1,0,2.3,0.1,2.5,0.1
		c0.2,0,1.1-0.1,2.2-0.1c0.3,0,0.4,0.1,0.4,0.1c0,0.1-0.1,0.2-0.2,0.1c-0.2,0-0.6,0-0.8,0.1c-0.1,0.1-0.3,0.2-0.3,0.5
		c0,0.3,0.2,1,0.4,2C89,7,91.2,14.9,91.5,16h0l4.6-12.2c0.3-0.9,0.4-1,0.5-1c0.1,0,0.3,0.3,0.5,1L101.5,16z"/>
	<path class="st0" d="M112.2,12.7c0,2.1,0,3.8,0.1,4.7c0.1,0.6,0.2,1.1,0.8,1.2c0.3,0,0.8,0.1,1,0.1c0.1,0,0.2,0.1,0.2,0.1
		c0,0.1-0.1,0.2-0.3,0.2c-1.2,0-2.5-0.1-2.6-0.1c-0.1,0-1.5,0.1-2.1,0.1c-0.2,0-0.3,0-0.3-0.2c0-0.1,0-0.1,0.2-0.1
		c0.2,0,0.5,0,0.6-0.1c0.4-0.1,0.5-0.6,0.6-1.2c0.1-0.9,0.1-2.6,0.1-4.7V9c0-3.3,0-4,0-4.6c0-0.7-0.3-1.1-0.7-1.2
		c-0.2-0.1-0.5-0.1-0.7-0.1c-0.1,0-0.2,0-0.2-0.1c0-0.1,0.1-0.2,0.3-0.2c0.7,0,2.1,0.1,2.2,0.1c0.1,0,1.4-0.1,2.1-0.1
		c0.2,0,0.3,0,0.3,0.2c0,0.1-0.1,0.1-0.2,0.1c-0.2,0-0.3,0-0.5,0.1c-0.6,0.1-0.8,0.5-0.8,1.2c0,0.7,0,1.3,0,4.6V12.7z"/>
	<path class="st0" d="M145.3,13.5c0-1.7-0.1-2-1-2.2c-0.2,0-0.5-0.1-0.7-0.1c-0.1,0-0.2,0-0.2-0.1c0-0.1,0.1-0.2,0.3-0.2
		c1,0,2.3,0.1,2.4,0.1c0.1,0,1.5-0.1,2.1-0.1c0.2,0,0.3,0,0.3,0.2c0,0.1-0.1,0.1-0.2,0.1c-0.2,0-0.3,0-0.5,0.1
		c-0.6,0.1-0.8,0.5-0.8,1.2c0,0.7,0,1.3,0,2.2v2.4c0,1,0,1-0.3,1.2c-1.4,0.7-3.3,1-4.5,1c-1.6,0-4.7-0.2-7.1-2.3
		c-1.3-1.1-2.5-3.4-2.5-6.1c0-3.4,1.7-5.9,3.6-7c1.9-1.2,4.1-1.4,5.7-1.4c1.4,0,2.9,0.3,3.3,0.4c0.4,0.1,1.2,0.2,1.7,0.2
		c0.2,0,0.3,0.1,0.3,0.2c0,0.3-0.2,0.9-0.2,3c0,0.3,0,0.5-0.2,0.5c-0.1,0-0.1-0.1-0.2-0.3c0-0.3-0.1-0.9-0.5-1.4
		c-0.5-0.8-2.3-1.7-5-1.7c-1.4,0-3,0.1-4.6,1.4c-1.2,1-2.1,2.9-2.1,5.4c0,3,1.5,5.2,2.3,5.9c1.7,1.7,3.6,2.3,5.6,2.3
		c0.8,0,1.9-0.1,2.4-0.4c0.3-0.2,0.4-0.4,0.4-0.8V13.5z"/>
	<path class="st0" d="M43,9c0-3.4,0-4,0-4.6c0-0.7-0.2-1.1-0.9-1.2c-0.2,0-0.5-0.1-0.7-0.1c-0.1,0-0.2,0-0.2-0.1
		c0-0.1,0.1-0.2,0.3-0.2c1,0,2.2,0.1,2.4,0.1c0.2,0,1.4-0.1,2.1-0.1c0.2,0,0.3,0,0.3,0.2c0,0.1-0.1,0.1-0.2,0.1
		c-0.1,0-0.3,0-0.5,0.1c-0.6,0.1-0.8,0.5-0.8,1.2c0,0.7,0,1.3,0,4.6v1.3h0.1c0.4-0.4,4.3-4.4,5-5.2C50.5,4.5,51,3.9,51,3.5
		c0-0.3-0.1-0.4-0.3-0.4c-0.1,0-0.2-0.1-0.2-0.2c0-0.1,0.1-0.1,0.3-0.1c0.4,0,1.1,0.1,1.6,0.1c0.1,0,1.5-0.1,2.1-0.1
		c0.2,0,0.3,0,0.3,0.1c0,0.1,0,0.2-0.2,0.2c-0.3,0-0.8,0.1-1.2,0.3c-0.9,0.4-1.3,0.9-2.3,1.8c-0.5,0.5-4.3,4.2-4.7,4.7
		c0.6,0.6,5,5.2,5.9,6.1c1.8,1.7,2.2,2,3.2,2.4c0.6,0.2,1.2,0.3,1.3,0.3c0.1,0,0.3,0,0.3,0.1c0,0.1-0.1,0.2-0.5,0.2h-1.1
		c-0.6,0-1,0-1.5,0c-1.1-0.1-1.7-0.6-2.6-1.3c-1-0.8-5.5-5.7-6.6-7h-0.1v2.1c0,2.1,0,3.8,0.1,4.7c0.1,0.6,0.2,1.1,0.8,1.2
		c0.3,0,0.6,0.1,0.8,0.1c0.1,0,0.2,0.1,0.2,0.1c0,0.1-0.1,0.2-0.3,0.2c-1.1,0-2.3-0.1-2.5-0.1c-0.2,0-1.4,0.1-2.1,0.1
		c-0.2,0-0.3,0-0.3-0.2c0-0.1,0-0.1,0.2-0.1c0.2,0,0.5,0,0.6-0.1c0.4-0.1,0.5-0.6,0.6-1.2c0.1-0.9,0.1-2.6,0.1-4.7V9z"/>
	<path class="st0" d="M72.1,9c0-3.4,0-4,0-4.6c0-0.7-0.2-1.1-0.9-1.2c-0.2,0-0.5-0.1-0.7-0.1c-0.1,0-0.2,0-0.2-0.1
		c0-0.1,0.1-0.2,0.3-0.2c1,0,2.2,0.1,2.4,0.1c0.2,0,1.4-0.1,2.1-0.1c0.2,0,0.3,0,0.3,0.2c0,0.1-0.1,0.1-0.2,0.1
		c-0.2,0-0.3,0-0.5,0.1c-0.6,0.1-0.8,0.5-0.8,1.2c0,0.7,0,1.3,0,4.6v1.3h0.1c0.4-0.4,4.2-4.4,5-5.2c0.6-0.6,1.2-1.2,1.2-1.5
		c0-0.3-0.1-0.4-0.3-0.4c-0.1,0-0.2-0.1-0.2-0.2c0-0.1,0.1-0.1,0.3-0.1c0.4,0,1.1,0.1,1.6,0.1c0.1,0,1.5-0.1,2.1-0.1
		c0.2,0,0.3,0,0.3,0.1c0,0.1,0,0.2-0.2,0.2c-0.3,0-0.8,0.1-1.2,0.3c-0.9,0.4-1.4,0.9-2.3,1.8c-0.5,0.5-4.3,4.2-4.7,4.7
		c0.6,0.6,5,5.2,5.9,6.1c1.8,1.7,2.2,2,3.2,2.4c0.6,0.2,1.2,0.3,1.3,0.3c0.2,0,0.3,0,0.3,0.1c0,0.1-0.1,0.2-0.5,0.2h-1.1
		c-0.6,0-1,0-1.5,0c-1.1-0.1-1.7-0.6-2.6-1.3c-1-0.8-5.5-5.7-6.5-7h-0.1v2.1c0,2.1,0,3.8,0.1,4.7c0.1,0.6,0.2,1.1,0.8,1.2
		c0.3,0,0.6,0.1,0.8,0.1c0.1,0,0.2,0.1,0.2,0.1c0,0.1-0.1,0.2-0.3,0.2c-1.1,0-2.3-0.1-2.5-0.1c-0.2,0-1.4,0.1-2.1,0.1
		c-0.2,0-0.3,0-0.3-0.2c0-0.1,0-0.1,0.2-0.1c0.2,0,0.5,0,0.6-0.1c0.4-0.1,0.5-0.6,0.6-1.2c0.1-0.9,0.1-2.6,0.1-4.7V9z"/>
	<rect x="2.2" y="45.3" class="st0" width="94.8" height="0.4"/>
	<rect x="111.5" y="45.3" class="st0" width="36.6" height="0.4"/>
</g>
</svg>
