<svg id="Group_25831" data-name="Group 25831" xmlns="http://www.w3.org/2000/svg" width="40" height="40" viewBox="0 0 40 40">
  <circle id="Ellipse_60" data-name="Ellipse 60" cx="20" cy="20" r="20"/>
  <g id="Group_25369" data-name="Group 25369" transform="translate(769.444 277.6)">
    <path id="Path_28825" data-name="Path 28825" d="M-757.427-253.763a1.8,1.8,0,0,0-.516.341h-.086a3.751,3.751,0,0,0-.6.341.669.669,0,0,0-.344.341v.085l-.086.085c-.086,0-.086.085-.086.171-.086.085-.086.085-.172,0a.084.084,0,0,1-.086-.085.117.117,0,0,1,0-.171c0-.085,0-.085.086-.171l.172-.171a.184.184,0,0,1,.172-.171h0c.086-.085.086-.171.172-.256s.086-.085.086-.171l.258-.256c.086-.085.258-.171.344-.341l.258-.256h0c.086,0,.086-.085.086-.171h-.086l-.258.256c-.086.085-.172.171-.258.171h-.172c0-.085-.086-.085-.086-.171v-.085c.172-.085.258-.256.43-.341l.172-.171a2.278,2.278,0,0,1,.516-.426l.086-.085.258-.256c.086-.085.258-.171.344-.256s.258-.171.344-.341h0v-.085h-.172a.654.654,0,0,1-.344.171c-.172.085-.258.171-.43.171-.172.085-.43.256-.6.341-.086,0-.086.085-.172.085l-.086.085c-.086,0-.086,0-.172.085s-.172,0-.172-.085v-.085c.258-.085.43-.256.688-.341.086,0,.172-.085.258-.171s.258-.085.344-.171l.516-.256c.086-.085.172-.085.258-.171h0l.086-.085c0-.085-.086,0-.086,0a1.1,1.1,0,0,0-.516.085h-.43c-.086,0-.086,0-.172-.085v-.085c.086,0,.086,0,.172-.085.172-.085.43-.085.6-.171.172,0,.344-.085.516-.085h.344c.086,0,.172,0,.172-.085.086,0,.086,0,0-.085v-.085h0c.086,0,.086-.085.172-.085a.448.448,0,0,1,.344-.171h.086c.086-.085.086-.085.172-.085a1.885,1.885,0,0,0,.43-.256c.086-.085.172-.085.258-.171a1.887,1.887,0,0,0,.43-.256l.172-.171c0-.085.086-.085.172-.171.086,0,.086,0,.172-.085s.172-.085.172-.256v-.085c0-.085.086-.171.172-.256s.172-.171.258-.171v-.085c0-.085.086-.171.172-.256.086,0,.086,0,.172-.085v-.171a.649.649,0,0,1,.172-.426c0-.085.086-.085.172-.171s.172-.085.172-.171c.086-.085.086-.171.172-.171s.086-.085.172-.085l.516-.256c.086-.085.172-.085.344-.085.086,0,.258-.085.344-.085s.086,0,.172-.085c.086,0,.172-.085.258-.171v-.085c-.086-.171.086-.341.172-.426h.172a.521.521,0,0,1,.344-.085c.086,0,.086,0,.172-.085a.084.084,0,0,0,.086-.085c0-.085.086-.171.086-.256s.086-.085.172-.085c.172,0,.258-.085.43-.085a.084.084,0,0,0,.086-.085l.086-.085c0-.085.172-.171.258-.256s.258-.085.344-.171l.774-.256c.086,0,.172-.085.258-.085h.086c.086,0,.086,0,.172-.085a.521.521,0,0,1,.344-.085h.086c.086,0,.086,0,.172-.085.086,0,.258-.085.344-.085.086-.085.258-.085.43-.171a.084.084,0,0,0,.086-.085h-.086a1.1,1.1,0,0,0-.516.085h-.258a.3.3,0,0,1-.172.085c-.172.085-.344.085-.516.171a.318.318,0,0,0-.258.085c-.172.085-.344.085-.516.171h-.172a.782.782,0,0,1-.43.085h-.086c0-.085,0-.256.086-.256s.086-.085.172-.085h.086c.172-.085.258-.171.43-.171l.086-.085a.644.644,0,0,0,.172-.341c0-.085.086-.085.172-.085h.086c.172-.085.258-.171.43-.256a.084.084,0,0,0,.086-.085c0-.085.086-.085.172-.085l.516-.256a2.278,2.278,0,0,0,.516-.426,4.627,4.627,0,0,1,1.033-.767,1.032,1.032,0,0,0,.43-.426c.086-.085.172-.171.258-.171h.086a.084.084,0,0,1,.086-.085h1.033c.086,0,.086,0,.172-.085a.084.084,0,0,0,.086-.085.66.66,0,0,1,.43-.171c.172,0,.258-.085.344-.256a1.187,1.187,0,0,1,.344-.256c.086,0,.258-.085.344-.085.172,0,.258,0,.344.085h.172c.086,0,.086,0,.086.085l.086.085a.509.509,0,0,1,.086.341c0,.085,0,.085-.086.171q0,.128-.258.256c-.086,0-.172.085-.258.085v.341c0,.085,0,.171-.172.171v.426h0c-.086,0-.172,0-.172.085a.3.3,0,0,1-.172.085c-.086.085-.172.085-.172.171s-.086.085-.172.085-.172.085-.258.171c-.086.171-.258.171-.344.256h-.172c-.086,0-.086.085-.086.171s0,.085-.086.171l-.258.256a1.509,1.509,0,0,0-.43.341l-.086.085c-.086.085-.258.171-.344.256s-.172.085-.258.171a3.614,3.614,0,0,0-.86.341,4.214,4.214,0,0,1-.6.256c-.086,0-.172.085-.344.085-.172.085-.258.085-.43.171h-.086c-.172,0-.344.171-.516.256-.086,0-.172.085-.258.085a.3.3,0,0,0-.172.085c-.172,0-.258.085-.43.085s-.344.085-.516.085a.084.084,0,0,0-.086.085v.171a.184.184,0,0,1-.172.171c-.086,0-.086,0-.172.085a4.21,4.21,0,0,1-.6.256,3.746,3.746,0,0,1-.6.341,1.187,1.187,0,0,0-.344.256c-.086.085-.258.171-.258.341a1.5,1.5,0,0,1-.344.426c0,.085-.086.085-.172.085-.172,0-.258.085-.43.171a.521.521,0,0,1-.344.085h0v.085h.516s.086,0,0,.085a.084.084,0,0,1-.086.085c-.086.085-.172.171-.172.256v.085c.086,0,.086.085,0,.171a.084.084,0,0,1-.086.085.084.084,0,0,1-.086.085.084.084,0,0,1-.086.085c-.086,0-.086.085-.086.171s-.085.171-.172.341a.084.084,0,0,1-.086.085.653.653,0,0,0-.172.426.184.184,0,0,0,.172.171h.43c.173,0,.43-.085.6-.085a.316.316,0,0,0,.257-.085.522.522,0,0,1,.345-.085.319.319,0,0,0,.258-.085h.085c.086,0,.086-.085.172-.085h.173c.085,0,.085.085.172.085h.86l.085-.085a.084.084,0,0,1,.086-.085h.43a1.1,1.1,0,0,1,.516.085c.086,0,.258.085.344.085s.086,0,.172.085v.085c0,.085,0,.171-.085.171h-.43a3.112,3.112,0,0,0-.946.171.521.521,0,0,1-.344.085h-.086c-.086,0-.086,0-.086.085-.086.085-.086.085-.258.085a.318.318,0,0,0-.258.085h-.086a.268.268,0,0,1-.172.085c-.086.085-.172.085-.258.171a.084.084,0,0,0-.086.085c-.086.085-.258.171-.344.256l-.172.171v.085l-.258.256c-.086.085-.258.171-.344.256a.3.3,0,0,1-.172.085c-.086.085-.258.171-.344.256h0c-.172,0-.258.171-.344.256v.171l.085.085c0,.085,0,.085.086.085l.258.256c.086.085.172.171.258.171l.172.171.086.085a1.187,1.187,0,0,1,.344.256c.086.085.172.085.258.171.086,0,.172.085.344.085a.184.184,0,0,1,.172.171v.085c0,.171.086.171.258.171s.258.085.43.171l.086.085c.086.085.172.085.344.171h.086a.318.318,0,0,1,.258.085.084.084,0,0,1,.086.085.782.782,0,0,0,.43.085h.086a.521.521,0,0,0,.344.085c.086,0,.086,0,.172.085.172.085.258.085.43.171.086,0,.086.085.172.085v.085c0,.085-.086.171-.172.256-.086,0-.086.085-.172,0h-1.463a.162.162,0,0,0-.258,0h-.6c.172,0,.344.085.515.085h.258a1.1,1.1,0,0,1,.516.085h.086a1.1,1.1,0,0,1,.516.085h.086a.782.782,0,0,1,.43.085.655.655,0,0,1,.344.085c.172,0,.258.085.43.085a.084.084,0,0,1,.086.085.311.311,0,0,1-.086.256.3.3,0,0,0-.086.171v.085l-.086.085v.085c.086,0,.086.085.172.085a1.607,1.607,0,0,1,.6.171h.086c.258.085.43.171.688.256.086,0,.172.085.086.256,0,.085,0,.085-.086.171h0a.3.3,0,0,1-.086.171v.085a.65.65,0,0,0,.43.085.521.521,0,0,1,.344.085h.173a.661.661,0,0,1,.344.171.318.318,0,0,0,.258.085c.085,0,.085.085.172.171v.171c0,.085-.086.085-.086.171a.12.12,0,0,1-.172,0c-.086,0-.172-.085-.258-.085h-.172c-.086,0-.172-.085-.258,0h-.172c-.086,0-.172-.085-.258-.085a.521.521,0,0,1-.344-.085c-.172,0-.344-.085-.516-.085h0a1.694,1.694,0,0,1-.6-.085c-.172,0-.344-.085-.516-.085h-.172a.655.655,0,0,1,.344.085h.086a.65.65,0,0,1,.43.085h.258c.172,0,.344.085.516.085.085,0,.172.085.258.085a1.1,1.1,0,0,0,.515.085,1.4,1.4,0,0,1,.775.256.083.083,0,0,1,.085.085c.086.085.086.085.086.171h0c0,.085-.086.171-.172.085a1.286,1.286,0,0,0-.6-.085h-.258a.521.521,0,0,1-.344-.085h-.258a3.753,3.753,0,0,0-.43-.085h-1.119a.655.655,0,0,1-.344-.085h-.43a.318.318,0,0,1,.258.085c.258.085.516.085.774.171s.516.085.774.171l1.032.256a7.223,7.223,0,0,1,1.291.341,10.97,10.97,0,0,1,1.549.512,1.461,1.461,0,0,0,.43.171c.086,0,.086.085.172.085.086.085.086.085,0,.171l-.086.085h-.172l-.515-.256a.084.084,0,0,1-.086-.085c0-.085-.086-.171-.258-.171-.6-.171-1.119-.341-1.721-.512-.516-.171-1.119-.256-1.635-.426-.43-.085-.775-.171-1.205-.256a2.671,2.671,0,0,0-.86-.085c-.257,0-.43-.085-.687-.085-.173,0-.43-.085-.6-.085s-.344-.085-.515-.085h-1.033c-.086,0-.172-.085-.086-.171a.084.084,0,0,1,.086-.085h2.925a3.559,3.559,0,0,1,.946.085h.6a1.1,1.1,0,0,1,.515.085h.086a.318.318,0,0,1-.258-.085,3.081,3.081,0,0,0-.86-.171c-.258-.085-.6-.085-.86-.171a.782.782,0,0,1-.43-.085c-.172,0-.344-.085-.515-.085h-.6a1.477,1.477,0,0,0-.6-.085h-2.151a.084.084,0,0,1-.086-.085v-.085c0-.085,0-.085.086-.085h2.581a1.1,1.1,0,0,1,.516.085h1.2c-.085,0-.085-.085-.172-.085h-.516a.523.523,0,0,1-.344-.085h-.258c-.085,0-.085,0-.172-.085s-.172-.085-.344-.085a2.4,2.4,0,0,1-.774-.085h-.086a.65.65,0,0,1-.43-.085h-.6a1.1,1.1,0,0,1-.515-.085h-1.2c-.086,0-.172,0-.172-.171v-.256c0-.085,0-.085-.086-.085h-.172c-.086,0-.172,0-.172-.171v-.171a.184.184,0,0,0-.172-.171h-.43c-.086,0-.172,0-.172-.171v-.426h-.086a.521.521,0,0,0-.344.085h-.086a.084.084,0,0,1-.086-.085v-.256c0-.085,0-.085.086-.085s.086,0,.172-.085c.258,0,.43-.085.688-.085s.43-.085.688-.085c.172,0,.43-.085.6-.085h0a.782.782,0,0,0-.43.085h-.344a.521.521,0,0,0-.344.085h-.172a.649.649,0,0,1-.43.085.318.318,0,0,0-.258.085h-.172a.318.318,0,0,0-.258.085c-.086,0-.086.085-.172,0a.162.162,0,0,0-.258,0h-.172c-.086,0-.086-.085-.086-.171s-.086-.256-.086-.341v-.171c0-.085,0-.085-.086-.085h-.172a.083.083,0,0,1-.085-.085.3.3,0,0,0-.086-.171v-.171l-.086-.085c-.258,0-.344.171-.344.426,0,.085,0,.171.086.171a.3.3,0,0,0,.085.171c0,.085.086.171.086.256v.171a5.4,5.4,0,0,0-.172.6.311.311,0,0,1-.086.256.644.644,0,0,1-.172.341c-.086.085-.086.085-.172,0-.086,0-.086-.085-.086-.171a1.072,1.072,0,0,1,.086-.512.311.311,0,0,0-.086-.256,1.5,1.5,0,0,0-.344-.426.159.159,0,0,1,0-.256v-.085c.086-.171.086-.256.172-.426a.084.084,0,0,1,.086-.085c0-.085,0-.085-.086-.085h-.086c-.085,0-.172,0-.172-.085a.084.084,0,0,0-.086-.085c-.085-.085-.085-.085-.172,0-.172.085-.43.256-.6.341-.344.256-.774.6-1.119.853h0a.162.162,0,0,1-.258,0c-.085-.085-.085-.171-.172-.171v-.085l.086-.085c.086-.085.258-.171.344-.256a5.755,5.755,0,0,0,1.377-.938Zm5.593-.085h0c.086-.085,0-.085,0,0Zm6.625,3.837h0a.268.268,0,0,0-.172-.085h0C-745.3-250.011-745.3-250.1-745.209-250.011Zm-1.549.853h0v.085a.084.084,0,0,0,.086.085.084.084,0,0,0,.086-.085A.3.3,0,0,0-746.758-249.158Zm.774-14.837h.172c-.086-.085-.086-.171-.172,0Zm.086,14.155h0c0-.085-.086-.085,0,0-.086-.085-.086,0,0,0-.086.085-.086,0,0,0Zm-.086.853h0c0-.085.086-.085,0,0Zm-.946-14.837Z" fill="#fdfdfd"/>
    <path id="Path_28826" data-name="Path 28826" d="M-745.609-257.636h0c0,.085-.086.085-.086.171h-.086c-.172,0-.344-.085-.516-.085h-.516c-.086,0-.086,0-.086-.085s0-.085.086-.085h.086c.172,0,.258-.085.43-.085s.43-.085.6,0c.086,0,.086.085.172.085A.084.084,0,0,0-745.609-257.636Z" transform="translate(-1.751 -1.584)" fill="#fafafa"/>
  </g>
</svg>
