<svg xmlns="http://www.w3.org/2000/svg" width="274" height="200" viewBox="0 0 274 200">
  <g id="Group_25314" data-name="Group 25314" transform="translate(-702.154 -663.026)">
    <path id="Path_28727" data-name="Path 28727" d="M722.648,863.026a126.241,126.241,0,0,1-20.494-68.969c0-72.366,61.337-131.031,137-131.031s137,58.665,137,131.031a126.242,126.242,0,0,1-20.494,68.969Z" transform="translate(0 0)" fill="#202020"/>
    <g id="Group_25313" data-name="Group 25313" transform="translate(771.583 675.285)">
      <g id="Group_25308" data-name="Group 25308">
        <path id="Path_28728" data-name="Path 28728" d="M787.026,769.082l-1.89,20.657,2.809.437,7.95-18.38Z" transform="translate(-779.45 -685.395)" fill="#848484"/>
        <path id="Path_28729" data-name="Path 28729" d="M787.715,790.048a8.528,8.528,0,0,0-.245,3.773c.272,1.075-1.4,2.55-3.247,4.59-.186.205-.532,0-.492-.276a2.017,2.017,0,0,1,.151-.508,16.185,16.185,0,0,1,1.293-2.124c-.077-.3-2.046.759-3.156,1.495-.645.427-2.514,2.444-3.012,2.143s.307-2.241,1.171-3.67,3.973-2.636,4.362-3.733S787.715,790.048,787.715,790.048Z" transform="translate(-778.854 -687.393)" fill="#848484"/>
        <path id="Path_28730" data-name="Path 28730" d="M798.67,685.348l20.579-8.771,18.974,9.044-18.974,9.624Z" transform="translate(-780.733 -676.577)" opacity="0.2"/>
        <g id="Group_25301" data-name="Group 25301" transform="translate(17.748 8.505)">
          <g id="Group_25300" data-name="Group 25300">
            <path id="Path_28731" data-name="Path 28731" d="M801.979,696.323l.293-.389c-4.144-3.117-3.339-8.325-3.089-9.516a.394.394,0,0,0-.157-.4h0a.216.216,0,0,0-.337.135C798.417,687.541,797.658,693.073,801.979,696.323Z" transform="translate(-798.46 -685.978)" fill="#515151"/>
          </g>
          <path id="Path_28732" data-name="Path 28732" d="M802.641,696.983l.62.231-.518.663-.395-.5Z" transform="translate(-798.829 -687.027)" fill="#515151"/>
          <path id="Path_28733" data-name="Path 28733" d="M803.3,697.238s.768.556,1.037.386c0,0-.251.73-.626.807a2.547,2.547,0,0,1-.929-.53Z" transform="translate(-798.87 -687.051)" fill="#515151"/>
        </g>
        <path id="Path_28734" data-name="Path 28734" d="M812.352,859.553l-1.4,5.87-1.853,7.785h-5.789l-.345-7.457L802.7,860Z" transform="translate(-781.115 -694.018)" fill="#848484"/>
        <path id="Path_28735" data-name="Path 28735" d="M800.849,883.2a15.413,15.413,0,0,1,.4-3.775c.4-.942,1.885-4.777,1.885-4.777h5.79a35.537,35.537,0,0,1,1.145,4.642c.067,1.144,0,3.91,0,3.91Z" transform="translate(-780.939 -695.457)" fill="#3d3d3d"/>
        <path id="Path_28736" data-name="Path 28736" d="M840.49,883.2a15.38,15.38,0,0,0-.4-3.775c-.4-.942-1.885-4.777-1.885-4.777h-5.79a35.417,35.417,0,0,0-1.144,4.642c-.068,1.144,0,3.91,0,3.91Z" transform="translate(-783.82 -695.457)" fill="#3d3d3d"/>
        <path id="Path_28737" data-name="Path 28737" d="M815.059,708s-.2,6.307-1.012,9.133l-6.393,13.774L821.8,750.489l9.919-25.294-5.74-7.926s-1.733-8.458-.824-11.586S815.059,708,815.059,708Z" transform="translate(-781.584 -679.259)" fill="#848484"/>
        <path id="Path_28738" data-name="Path 28738" d="M815.8,709.313s1.9,4.579,5.488,4.478,4.4-4.152,4.4-4.152Z" transform="translate(-782.356 -679.697)" fill="#707070"/>
        <path id="Path_28739" data-name="Path 28739" d="M813.18,703.3a57.53,57.53,0,0,0-1.965-7.526c-.808-1.749-1.481-9.553,7.472-9.958,0,0,3.433.4,5.318-.74,0,0,0,1.144-.471,1.548,0,0,2.331-1.467,4.755,1.225s-.85,12.837-.648,15.057Z" transform="translate(-781.88 -677.387)" fill="#191919"/>
        <path id="Path_28740" data-name="Path 28740" d="M820.632,710.484c-2.6-.045-7.378-3.5-7.378-7.783v-6.68a2.665,2.665,0,0,1,2.423-2.842h9.91a2.665,2.665,0,0,1,2.423,2.842v6.3C828.01,706.812,823.611,710.536,820.632,710.484Z" transform="translate(-782.115 -678.159)" fill="#848484"/>
        <path id="Path_28741" data-name="Path 28741" d="M813.219,699.428s.014-4.014,3.194-4.631,10.3,1.956,11.31-.971-13.761-2.876-14.5-1.009S813.219,699.428,813.219,699.428Z" transform="translate(-782.081 -678)" fill="#191919"/>
        <path id="Path_28742" data-name="Path 28742" d="M814.652,718.434l5.921,1.328,5.984-1.441,1.527,9.179-6.716,22.85-7.347-27.38Z" transform="translate(-782.188 -680.556)" fill="#fff"/>
        <path id="Path_28743" data-name="Path 28743" d="M814.4,720.312l4.7,3.509,1.539-2.521,1.427,2.521,5.011-4.361-.989-1.139-5.481,1.441-5.921-.268Z" transform="translate(-782.224 -680.556)" fill="#d3d3d3"/>
        <path id="Path_28744" data-name="Path 28744" d="M837.5,775.6l-14.089.879c-.081-.132-.172-.132-.273.017l-4.145.259-17.666-1.1s-4.444,20.269-2.7,47.279c.558,8.616,1.8,34.135,2.987,43.159l12.109.128c1.57-10.206,3.385-35.676,4.361-40.048q.665-2.98,1.239-5.9a37.337,37.337,0,0,1,.569,5.141,46.073,46.073,0,0,0,1.242,8.1c1.019,4.849,4.015,27.206,4.908,33.042h12.705c.152-8.042.843-35.357.988-43.615C840.121,800.909,837.5,775.6,837.5,775.6Z" transform="translate(-780.69 -686.016)" fill="#9e9e9e"/>
        <path id="Path_28745" data-name="Path 28745" d="M846.222,841.353c-6.477,3.393-50.586,7.414-58.492-1.909-1.346-1.587,17.449-119.682,17.449-119.682s1.21-.349,3.253-.734c1.044-.2,2.3-.4,3.723-.573.016.442,3.061,19.621,7.2,27.1,0,0,4.7-10.322,4.727-26.991a1.935,1.935,0,0,0-.029-.243c.888.1,1.79.219,2.694.375q.573.1,1.147.216a37.14,37.14,0,0,1,4.369,1.149S847.571,840.645,846.222,841.353Z" transform="translate(-779.689 -680.556)" fill="#3d3d3d"/>
        <path id="Path_28746" data-name="Path 28746" d="M809.826,718.714s-6.749,51.816-9.339,55.7c-1.084,1.625-2.669,1.891-4.536,1.526a11.251,11.251,0,0,1-1.1-.27l-5.177-1.982-.023-.008c-.838-.336-1.685-.652-2.53-.914-5.317-1.646-4.9-6.12-3.472-12.219s10.806-35.468,13.971-37.541A30.407,30.407,0,0,1,809.826,718.714Z" transform="translate(-779.221 -680.593)" fill="#3d3d3d"/>
        <path id="Path_28747" data-name="Path 28747" d="M826.622,718.01a53.34,53.34,0,0,0-11.9.136l0-.023S825.735,711.313,826.622,718.01Z" transform="translate(-782.254 -680.245)" fill="#848484"/>
        <path id="Path_28748" data-name="Path 28748" d="M822.354,750.349c-6.816-5.016-11.746-31.321-11.746-31.321,1.044-.2,2.3-.4,3.723-.573.016.442,2.891,18.566,7.035,26.045,0,0,4.867-9.267,4.9-25.936a1.924,1.924,0,0,0-.029-.243c.888.1,1.79.219,2.694.375q.573.1,1.147.216C830.085,732.951,822.354,750.349,822.354,750.349Z" transform="translate(-781.865 -680.556)" fill="#9e9e9e"/>
        <path id="Path_28749" data-name="Path 28749" d="M818.864,706.822a19.3,19.3,0,0,1,4.549.04,2.688,2.688,0,0,1-2.039,1.241A2.5,2.5,0,0,1,818.864,706.822Z" transform="translate(-782.647 -679.448)" fill="#fff0e6"/>
        <path id="Path_28750" data-name="Path 28750" d="M810.572,689.065l.185,3.024s6.974-4.656,18.412-.381l-.159-4.374a3,3,0,0,0-1.449-2.026c-2.145-1.234-7.168-3.523-15.106.308A4.363,4.363,0,0,0,810.572,689.065Z" transform="translate(-781.861 -677.236)" fill="#3d3d3d"/>
        <path id="Path_28751" data-name="Path 28751" d="M815.042,715.371l-2.378,3.025,6.289,4.292,1.49-3.207Z" transform="translate(-782.059 -680.275)" fill="#fff"/>
        <path id="Path_28752" data-name="Path 28752" d="M826.759,715.371l-5.5,4.11,1.578,3.207,5.414-4.528Z" transform="translate(-782.874 -680.275)" fill="#fff"/>
        <path id="Path_28753" data-name="Path 28753" d="M821.049,727.739a.434.434,0,1,1,0,.613A.434.434,0,0,1,821.049,727.739Z" transform="translate(-782.842 -681.441)" fill="#d3d3d3"/>
        <ellipse id="Ellipse_78" data-name="Ellipse 78" cx="0.434" cy="0.434" rx="0.434" ry="0.434" transform="translate(38.079 50.838)" fill="#d3d3d3"/>
        <path id="Path_28754" data-name="Path 28754" d="M821.049,738.208a.434.434,0,1,1,0,.613A.434.434,0,0,1,821.049,738.208Z" transform="translate(-782.842 -682.439)" fill="#d3d3d3"/>
        <path id="Path_28755" data-name="Path 28755" d="M836.939,720.244a13.652,13.652,0,0,1,6.506,6.951c2.268,5.19,11.675,19.366,11.4,26s-1.55,12.681-7.873,12.885c-4.34.14-8.76-4.105-8.76-10.454S836.939,720.244,836.939,720.244Z" transform="translate(-784.361 -680.739)" fill="#3d3d3d"/>
        <path id="Path_28756" data-name="Path 28756" d="M850.878,765.814c-.169,1.79-.84,3.236-2.444,3.636-5.07,1.267-7.313-3.624-6.246-8.415.034-.159.076-.312.123-.46,1.082-3.5,4.976-4.038,6.413-4.116.338-.019.539-.013.539-.013s.029.08.081.227C849.708,757.746,851.2,762.407,850.878,765.814Z" transform="translate(-784.834 -684.19)" opacity="0.2"/>
        <path id="Path_28757" data-name="Path 28757" d="M849.643,765.164s-14.783-6.649-20.634-14.285c-.433-.564.675-1.252.675-1.252l17.805,6.182.62.214C848.474,757.1,849.968,761.757,849.643,765.164Z" transform="translate(-783.6 -683.54)" fill="#848484"/>
        <g id="Group_25307" data-name="Group 25307" transform="translate(29.123 66.449)">
          <rect id="Rectangle_504" data-name="Rectangle 504" width="19.532" height="25.725" fill="#9e9e9e"/>
          <g id="Group_25303" data-name="Group 25303" transform="translate(5.829 14.855)">
            <path id="Path_28758" data-name="Path 28758" d="M819.663,770.07l-2.2,3.667,1.389-.2.6,1.1,1.866-3.372Z" transform="translate(-817.467 -766.793)" fill="#3d3d3d"/>
            <path id="Path_28759" data-name="Path 28759" d="M822.935,769.819l2.2,3.667-1.389-.2-.6,1.1-1.866-3.372Z" transform="translate(-817.829 -766.769)" fill="#3d3d3d"/>
            <path id="Path_28760" data-name="Path 28760" d="M819.037,768.916a2.576,2.576,0,0,1,2.438-2.435c1.739-.264,2.437,1.09,2.437,2.435a2.436,2.436,0,0,1-2.437,2.436A2.323,2.323,0,0,1,819.037,768.916Z" transform="translate(-817.614 -766.447)" fill="#9e9e9e"/>
            <g id="Group_25302" data-name="Group 25302" transform="translate(1.896 0.495)">
              <path id="Path_28761" data-name="Path 28761" d="M821.524,770.909a2.113,2.113,0,0,1-1.565-.712,1.543,1.543,0,0,1-.379-1.249h0a2.047,2.047,0,0,1,1.927-1.926,1.591,1.591,0,0,1,1.334.322,2.111,2.111,0,0,1,.628,1.621A1.947,1.947,0,0,1,821.524,770.909Zm.319-3.687a1.964,1.964,0,0,0-.3.024,1.826,1.826,0,0,0-1.736,1.736h0a1.318,1.318,0,0,0,.327,1.068,1.885,1.885,0,0,0,1.393.633,1.72,1.72,0,0,0,1.718-1.718,1.889,1.889,0,0,0-.549-1.449A1.263,1.263,0,0,0,821.842,767.222Z" transform="translate(-819.562 -766.995)" fill="#3d3d3d"/>
            </g>
          </g>
          <g id="Group_25304" data-name="Group 25304" transform="translate(5.829 2.769)">
            <path id="Path_28762" data-name="Path 28762" d="M824.232,753.416H818.8a.165.165,0,0,1-.164-.164h0a.164.164,0,0,1,.164-.164h5.437a.164.164,0,0,1,.163.164h0A.164.164,0,0,1,824.232,753.416Z" transform="translate(-817.577 -753.088)" fill="#3d3d3d"/>
            <path id="Path_28763" data-name="Path 28763" d="M825.176,754.172h-7.545a.164.164,0,0,1-.164-.164h0a.164.164,0,0,1,.164-.164h7.545a.164.164,0,0,1,.164.164h0A.164.164,0,0,1,825.176,754.172Z" transform="translate(-817.467 -753.16)" fill="#3d3d3d"/>
          </g>
          <g id="Group_25305" data-name="Group 25305" transform="translate(4.014 9.086)">
            <path id="Path_28764" data-name="Path 28764" d="M826.779,760.445H815.647a.188.188,0,0,1-.186-.187h0a.187.187,0,0,1,.186-.186h11.131a.188.188,0,0,1,.187.186h0A.188.188,0,0,1,826.779,760.445Z" transform="translate(-815.461 -760.071)" fill="#3d3d3d"/>
            <path id="Path_28765" data-name="Path 28765" d="M826.779,761.479H815.647a.188.188,0,0,1-.186-.187h0a.188.188,0,0,1,.186-.187h11.131a.188.188,0,0,1,.187.187h0A.188.188,0,0,1,826.779,761.479Z" transform="translate(-815.461 -760.17)" fill="#3d3d3d"/>
            <path id="Path_28766" data-name="Path 28766" d="M826.779,762.382H815.647a.187.187,0,0,1-.186-.186h0a.188.188,0,0,1,.186-.187h11.131a.188.188,0,0,1,.187.187h0A.188.188,0,0,1,826.779,762.382Z" transform="translate(-815.461 -760.256)" fill="#3d3d3d"/>
            <path id="Path_28767" data-name="Path 28767" d="M826.779,763.372H815.647a.188.188,0,0,1-.186-.187h0a.187.187,0,0,1,.186-.186h11.131a.188.188,0,0,1,.187.186h0A.188.188,0,0,1,826.779,763.372Z" transform="translate(-815.461 -760.35)" fill="#3d3d3d"/>
          </g>
          <path id="Path_28768" data-name="Path 28768" d="M828.67,769.229a7.509,7.509,0,0,1-1.122.755.956.956,0,0,0,.056-.311c-.007-.133-.114-.192-.221-.247-.026-.014-.051-.028-.075-.043a.135.135,0,0,0,.035-.157.115.115,0,0,0-.215.008.167.167,0,0,0-.014.051.136.136,0,0,1-.042-.033c.065-.121.127-.245.183-.371a.07.07,0,0,0-.026-.08.217.217,0,0,0-.3.042.4.4,0,0,0-.024.385l.01.025c-.082.149-.173.295-.269.436l-.028-.027a.648.648,0,0,1-.075-.09,1.319,1.319,0,0,0,.083-.362.07.07,0,0,0-.1-.067.292.292,0,0,0-.183.316.378.378,0,0,0,.043.133,1.181,1.181,0,0,1-.1.182.064.064,0,0,0,.024.1.957.957,0,0,1-.2.389c-.08.083-.229.147-.327.048a.418.418,0,0,1-.078-.251,4.447,4.447,0,0,1-.028-.622.942.942,0,0,1,.047-.288c.021-.057.05-.144.077-.045a.526.526,0,0,1-.01.172.069.069,0,0,0,.137.011c.01-.1.056-.318-.061-.383-.1-.053-.186.023-.23.1a1.827,1.827,0,0,0-.072,1c.019.25.113.557.433.478.3-.075.411-.454.481-.715a.066.066,0,0,0,0-.044l0-.006.037.038a.627.627,0,0,1,.051.049c-.031.044-.063.088-.1.13a.068.068,0,0,0,.005.083.16.16,0,0,0,.28-.118.225.225,0,0,0-.023-.093c.1-.137.184-.278.266-.422a.216.216,0,0,0,.165.065h.014a.523.523,0,0,0,.119.091.711.711,0,0,1,.119.064c.065.052.046.113.032.188a3.021,3.021,0,0,1-.08.295.62.62,0,0,0-.32.337.345.345,0,0,0,.12.386.069.069,0,0,0,.1-.034q.117-.286.208-.582l.005-.019c.122-.069.249-.129.369-.2a7.125,7.125,0,0,0,.906-.641C828.828,769.275,828.738,769.172,828.67,769.229Zm-1.66-.183c0-.054.027-.154.091-.153-.028.061-.058.122-.089.183Zm.173,1.579c-.057-.108.025-.241.119-.328Q827.247,770.462,827.183,770.624Z" transform="translate(-812.402 -751.813)" fill="#3d3d3d"/>
          <g id="Group_25306" data-name="Group 25306" transform="translate(0.902 0.89)">
            <path id="Path_28769" data-name="Path 28769" d="M829.885,775.11H812.024v-24.1h17.861Zm-17.657-.2h17.452v-23.69H812.229Z" transform="translate(-812.024 -751.011)" fill="#3d3d3d"/>
          </g>
        </g>
        <path id="Path_28770" data-name="Path 28770" d="M824.728,747.805s-3.6,3.09-2.3,3.555,4.772-1.6,5.454-1.6h2.25s-2.223-2.571-3.4-2.5A5,5,0,0,0,824.728,747.805Z" transform="translate(-782.958 -683.314)" fill="#848484"/>
        <path id="Path_28771" data-name="Path 28771" d="M801.213,741.8l-4.536,36.342a11.252,11.252,0,0,1-1.1-.27l-5.177-1.982-.023-.008s1.6-1.65,3.759-7.373S801.213,741.8,801.213,741.8Z" transform="translate(-779.947 -682.794)" opacity="0.2"/>
      </g>
      <g id="Group_25312" data-name="Group 25312" transform="translate(72.328 13.232)">
        <path id="Path_28772" data-name="Path 28772" d="M917.951,787.051s1.909,4.122,1.807,5.246a26.816,26.816,0,0,1-1.807,4.7l-2.06-9.467Z" transform="translate(-864.174 -700.339)" fill="#848484"/>
        <path id="Path_28773" data-name="Path 28773" d="M915.882,767.465l1.5,17.719-2.06.48-5.439-16.07Z" transform="translate(-863.604 -698.472)" fill="#848484"/>
        <path id="Path_28774" data-name="Path 28774" d="M867.548,703.282,888.023,691.2l14.065,9.851L882.6,712.407Z" transform="translate(-859.59 -691.203)" opacity="0.2"/>
        <path id="Path_28775" data-name="Path 28775" d="M877.944,710.1a6.905,6.905,0,0,1-3.387,4.509c-2.863,1.532-5.317,1.982-4.7,6.919s-2.761,6.06-3.375,9.331-.538,9.248,7.67,7.461,27-.511,29.045-3.168.611-8.176-2.867-12.367,1.125-6.932-.511-10.619a38.663,38.663,0,0,0-4.774-7.484S881.535,702.113,877.944,710.1Z" transform="translate(-859.468 -692.45)" fill="#191919"/>
        <path id="Path_28776" data-name="Path 28776" d="M883.453,860.946l2.769,11.657,4.148-.024.152-11.634Z" transform="translate(-861.098 -707.383)" fill="#848484"/>
        <path id="Path_28777" data-name="Path 28777" d="M922,861.334l7.88,11.16,3.071-3.941-4.743-8.754Z" transform="translate(-864.753 -707.274)" fill="#848484"/>
        <path id="Path_28778" data-name="Path 28778" d="M894.468,730.014c.028.013-.507,12.979-2.731,13-.466.005-3.905-9.078-4.343-9.2-2.378-.648-2.713-6.465-2.68-6.471,1.008-.2,1.3-1.583,1.276-7.527l.455.09,7.655,1.515s-.174,2.407-.179,4.675C893.916,728,894.032,729.81,894.468,730.014Z" transform="translate(-861.218 -693.931)" fill="#848484"/>
        <g id="Group_25310" data-name="Group 25310" transform="translate(0 11.744)">
          <g id="Group_25309" data-name="Group 25309" transform="translate(2.077)">
            <path id="Path_28779" data-name="Path 28779" d="M861.3,715.516l-.249-.524c5.57-2.649,5.869-8.909,5.861-10.357a.467.467,0,0,1,.279-.429h0a.256.256,0,0,1,.359.237C867.539,706.126,867.11,712.753,861.3,715.516Z" transform="translate(-861.052 -704.185)" fill="#515151"/>
          </g>
          <path id="Path_28780" data-name="Path 28780" d="M860.97,716.131l-.777.122.447.9.58-.494Z" transform="translate(-858.893 -705.323)" fill="#515151"/>
          <path id="Path_28781" data-name="Path 28781" d="M860.057,716.266s-1.026.467-1.3.2c0,0,.119.91.538,1.089a3.028,3.028,0,0,0,1.209-.4Z" transform="translate(-858.757 -705.336)" fill="#515151"/>
        </g>
        <path id="Path_28782" data-name="Path 28782" d="M894.282,721.433s-.174,2.407-.179,4.675c-4.283-.12-6.548-4.026-7.476-6.191Z" transform="translate(-861.399 -693.94)" fill="#707070"/>
        <path id="Path_28783" data-name="Path 28783" d="M884.42,718.476a22.519,22.519,0,0,1-4.029-5.9c-.8-2.045-1.31-10.127,6.826-10.587a10.969,10.969,0,0,1,4.795.786c1.95.812,4.932,2.815,3.546,10.236l-.252,2.463Z" transform="translate(-860.768 -692.229)" fill="#191919"/>
        <path id="Path_28784" data-name="Path 28784" d="M928.678,857.358s-2.035.35-3.706.478c-.37.028-.723.045-1.031.045a18.13,18.13,0,0,1-3.227-.53l-.072-.016c-.427-.1-.753-.184-.874-.215l-.051-.013A86.626,86.626,0,0,1,903.88,827.72q-.2-.632-.421-1.277c-3.116-9.078-9.572-20.469-12.975-30.783q-.812-2.462-1.463-4.651-.212-.7-.406-1.381a109.312,109.312,0,0,1-3.9-20.534l20.457,5.2S913.76,811.51,928.678,857.358Z" transform="translate(-861.218 -698.628)" fill="#9e9e9e"/>
        <path id="Path_28785" data-name="Path 28785" d="M895.251,721.21s-9.9,2.166-11.157-4.019-3.377-10.069,2.892-11.714,7.98.467,8.9,2.429S897.794,720.487,895.251,721.21Z" transform="translate(-861.028 -692.508)" fill="#848484"/>
        <path id="Path_28786" data-name="Path 28786" d="M891.225,704.276s-1.256,7.8-5.215,9.719-6,1.161-6,1.161a12.051,12.051,0,0,0,2.459-7.759S888.477,701.236,891.225,704.276Z" transform="translate(-860.772 -692.369)" fill="#191919"/>
        <path id="Path_28787" data-name="Path 28787" d="M891.786,705a8.944,8.944,0,0,1,3.171,2.686c.813,1.476,2.5,2,2.613,4.372,0,0,1.055-5.346-1.811-7.672C892.72,701.921,891.786,705,891.786,705Z" transform="translate(-861.888 -692.369)" fill="#191919"/>
        <path id="Path_28788" data-name="Path 28788" d="M886.3,873.112a11.233,11.233,0,0,1-.528,4.779s-.68,3.091,2.367,3.149,3.795-.23,3.45-2.126-1-5.175-1-5.175Z" transform="translate(-861.312 -708.543)" fill="#848484"/>
        <path id="Path_28789" data-name="Path 28789" d="M885.74,878.387a14.919,14.919,0,0,0-.22,4.471,5.521,5.521,0,0,0,3.134.689,6.365,6.365,0,0,0,3.19-.689,16.149,16.149,0,0,0-.5-4.55S889.189,881.547,885.74,878.387Z" transform="translate(-861.284 -709.038)" fill="#3d3d3d"/>
        <path id="Path_28790" data-name="Path 28790" d="M941,878.877s-5.617-6.23-7.342-9.4l-4.177,2.139,9.337,8.764,2.184-.288Z" transform="translate(-865.462 -708.196)" fill="#848484"/>
        <path id="Path_28791" data-name="Path 28791" d="M944.46,882.755s-6.036,0-7.07-.115-1.868-1.609-2.989-3.849a3.772,3.772,0,0,0-2.544-1.7v5.189h-1.6l-1.509-5.515c-.995-1.827-.079-3.484.621-4.926.814,0,3,.555,7.154,5.227a5.438,5.438,0,0,0,4.365,2.036.351.351,0,0,0,.063.034C944.4,880.687,944.46,882.755,944.46,882.755Z" transform="translate(-865.351 -708.422)" fill="#3d3d3d"/>
        <path id="Path_28792" data-name="Path 28792" d="M925.381,859.71c-.37.028-.723.045-1.031.045a18.13,18.13,0,0,1-3.227-.53l-.072-.016-.874-.215-.051-.013a86.625,86.625,0,0,1-15.837-29.387q-.2-.632-.421-1.277c-3.116-9.078-9.572-20.469-12.975-30.783q-.812-2.462-1.463-4.651-.212-.7-.406-1.381l3.618-2.746s10.864,17.581,14.226,34.125C909.655,836.594,921.656,854.374,925.381,859.71Z" transform="translate(-861.626 -700.502)" fill="#878787"/>
        <path id="Path_28793" data-name="Path 28793" d="M891.625,823.932c.061,8.044-.347,26.542-1.394,34.2a5.458,5.458,0,0,1-3.461.889,5.945,5.945,0,0,1-3.653-.92c-2.631-13.315-4.5-24.331-5.865-33.826-1.117-7.79-2.111-14.469-2.874-20.22-.677-5.094,3.6-18.892,3.6-18.892l16.059-1.566C893.77,797.7,891.59,819.256,891.625,823.932Z" transform="translate(-860.231 -700.01)" fill="#9e9e9e"/>
        <path id="Path_28794" data-name="Path 28794" d="M886.771,859.187a6.273,6.273,0,0,1-3.653-.92c-2.631-13.315-4.5-24.331-5.865-33.826-1.117-7.79-2.111-14.469-2.874-20.22-.677-5.094,3.6-18.892,3.6-18.892l5.444,3.479s-7.721,7.02-5.824,20.292S884.13,857.308,886.771,859.187Z" transform="translate(-860.231 -700.175)" fill="#878787"/>
        <path id="Path_28795" data-name="Path 28795" d="M914.017,768.745a18.876,18.876,0,0,1-3.251.7,19.935,19.935,0,0,0-4.628.93c-3.281,1.487-11.239-42.424-11.239-42.424s5.792.055,8.451,4.244,13.006,24.875,13.926,31.506C917.688,766.679,916.142,768.028,914.017,768.745Z" transform="translate(-862.183 -694.706)" fill="#3d3d3d"/>
        <path id="Path_28796" data-name="Path 28796" d="M923.546,827.937a14.639,14.639,0,0,1-1.992,3.193,23.434,23.434,0,0,1-2.918,3.085c-3.253,2.878-8.44,5.993-16.449,7.539-.425.081-.857.159-1.3.233-2.413.4-4.732.685-6.941.879a89.6,89.6,0,0,1-11.965.255c-2.352-.109-4.419-.3-6.155-.519a49.9,49.9,0,0,1-6.161-1.091s0-39.683,3.272-63.246c1.812-13.049,7.889-50.164,7.889-50.164l3.021-.464,7.242,16.125,1.417-15.841,3.293,1.057a4.92,4.92,0,0,1,3.268,3.481Z" transform="translate(-859.791 -694.676)" fill="#3d3d3d"/>
        <g id="Group_25311" data-name="Group 25311" transform="translate(22.721 46.192)">
          <path id="Path_28797" data-name="Path 28797" d="M901.64,768.387l-16.8-1.7,2.724-24.333,16.8,1.7Z" transform="translate(-883.95 -742.27)" fill="#9e9e9e"/>
          <path id="Path_28798" data-name="Path 28798" d="M887.468,742.343l-1.078-.081-2.532,24.313.886.1Z" transform="translate(-883.857 -742.262)" fill="#878787"/>
        </g>
        <path id="Path_28799" data-name="Path 28799" d="M872.136,756.213a177.649,177.649,0,0,0,23.073,5.215s3.721,1.608,1.974,2.048c-.448.113-23.028,5.034-26.376,1.841Z" transform="translate(-859.899 -697.4)" fill="#848484"/>
        <path id="Path_28800" data-name="Path 28800" d="M883.522,727.636s-8.827,1.067-10.312,2.849c-4.7,5.632-8.953,29.679-5.272,35.232,4.4,6.632,11.17-3.777,13.294-9.908C882.332,752.629,884.127,733.417,883.522,727.636Z" transform="translate(-859.495 -694.676)" fill="#3d3d3d"/>
        <path id="Path_28801" data-name="Path 28801" d="M896.5,761.506s1.387-.129,1.65-.572c.526-.886,1.357-.874,2.05-.991s1.473-.876,1.61-.723-.511.989-.873,1.3a3.028,3.028,0,0,0,1.236-.189c.492-.234,2.221-2.207,2.23-1.357.019,2.045-.139,2.37-1.89,3.815-1.439,1.188-6.322,1.628-6.322,1.628Z" transform="translate(-862.306 -697.643)" fill="#848484"/>
        <path id="Path_28802" data-name="Path 28802" d="M884.69,754.71l-.343,3.454a11.857,11.857,0,0,1-1.923-.605c-4.841-1.935-2.931-11.553-2.931-11.553A16.7,16.7,0,0,0,884.69,754.71Z" transform="translate(-860.688 -696.427)" opacity="0.2"/>
        <path id="Path_28803" data-name="Path 28803" d="M896.265,704.344s-7.157-2.717-17.1,5.419l.2-1.858a6,6,0,0,1,2.382-4.175,16.3,16.3,0,0,1,7.556-2.872,6.755,6.755,0,0,1,6.437,2.758Z" transform="translate(-860.692 -692.117)" fill="#3d3d3d"/>
        <path id="Path_28804" data-name="Path 28804" d="M915.192,770.959a18.88,18.88,0,0,1-3.251.7L907.3,751.173S915.111,766.918,915.192,770.959Z" transform="translate(-863.359 -696.92)" opacity="0.2"/>
        <path id="Path_28805" data-name="Path 28805" d="M892.646,719.117s.457.88,1.127.885a9.1,9.1,0,0,0,2.5-.322,8.358,8.358,0,0,0,.449-1.089A12.985,12.985,0,0,0,892.646,719.117Z" transform="translate(-861.97 -693.814)" fill="#fff"/>
      </g>
    </g>
  </g>
</svg>
